<?xml version="1.0" encoding="utf-8"?>
<!-- Generator: Adobe Illustrator 15.0.2, SVG Export Plug-In . SVG Version: 6.00 Build 0)  -->
<!DOCTYPE svg PUBLIC "-//W3C//DTD SVG 1.1//EN" "http://www.w3.org/Graphics/SVG/1.1/DTD/svg11.dtd">
<svg version="1.1"
	 id="Ebene_1" xmlns:sodipodi="http://sodipodi.sourceforge.net/DTD/sodipodi-0.dtd" xmlns:inkscape="http://www.inkscape.org/namespaces/inkscape" xmlns:rdf="http://www.w3.org/1999/02/22-rdf-syntax-ns#" xmlns:svg="http://www.w3.org/2000/svg" xmlns:cc="http://creativecommons.org/ns#" xmlns:dc="http://purl.org/dc/elements/1.1/"
	 xmlns="http://www.w3.org/2000/svg" xmlns:xlink="http://www.w3.org/1999/xlink" x="0px" y="0px" width="400px" height="400px"
	 viewBox="0 0 400 400" enable-background="new 0 0 400 400" xml:space="preserve">
<path fill="#A5646E" d="M192,16.2c-20.431,1.12-39.709,6.532-57,15.3l8.1,13.9c14.897-7.406,31.402-12.022,48.9-13.1V16.2z"/>
<path fill="#A5646E" d="M208,16.2v16.1c17.502,1.079,34.006,5.688,48.9,13.1l8.1-13.9C247.725,22.742,228.422,17.32,208,16.2z
	 M278.8,39.5l-8.1,13.9c14.237,9.462,26.437,21.667,35.899,35.9l13.9-8C309.621,64.676,295.403,50.397,278.8,39.5z M328.4,95.1
	l-13.801,8c7.405,14.875,12.018,31.42,13.101,48.9h16C342.585,131.588,337.148,112.375,328.4,95.1z"/>
<path fill="#A5646E" d="M121.2,39.5c-16.606,10.886-30.813,25.098-41.7,41.7l13.9,8.1c9.449-14.2,21.6-26.456,35.8-35.9L121.2,39.5z
	"/>
<path fill="#A5646E" d="M71.5,95.1c-8.756,17.271-14.075,36.502-15.2,56.9h15.9c1.092-17.488,5.778-34.007,13.2-48.9L71.5,95.1z"/>
<path fill="#A5646E" d="M56.3,168c1.115,20.412,6.552,39.625,15.3,56.9l13.8-8c-7.405-14.875-12.017-31.421-13.1-48.9H56.3z
	 M93.4,230.7l-13.9,8c10.878,16.624,25.097,30.902,41.7,41.8l8.1-13.9C115.063,257.138,102.863,244.934,93.4,230.7z M143.1,274.6
	l-8.1,13.9c17.275,8.758,36.579,14.18,57,15.3v-16.1C174.498,286.621,157.995,282.013,143.1,274.6z"/>
<path fill="#A5646E" d="M327.8,168c-1.092,17.487-5.778,34.008-13.2,48.9l13.9,8c8.756-17.271,14.074-36.502,15.2-56.9H327.8z"/>
<path fill="#A5646E" d="M306.6,230.699c-9.448,14.201-21.6,26.457-35.8,35.9l8,13.9c16.606-10.886,30.813-25.098,41.7-41.7
	L306.6,230.699z"/>
<path fill="#A5646E" d="M256.9,274.6c-14.897,7.406-31.402,12.022-48.9,13.1v16.102c20.432-1.121,39.709-6.533,57-15.301
	L256.9,274.6z"/>
<rect x="192" y="32" fill="#A5646E" width="16" height="144"/>
<rect x="184" y="152" fill="#A5646E" width="96" height="16"/>
</svg>
