<?xml version="1.0" encoding="utf-8"?>
<!-- Generator: Adobe Illustrator 15.0.2, SVG Export Plug-In . SVG Version: 6.00 Build 0)  -->
<!DOCTYPE svg PUBLIC "-//W3C//DTD SVG 1.1//EN" "http://www.w3.org/Graphics/SVG/1.1/DTD/svg11.dtd">
<svg version="1.1" id="Ebene_1" xmlns="http://www.w3.org/2000/svg" xmlns:xlink="http://www.w3.org/1999/xlink" x="0px" y="0px"
	 width="400px" height="400px" viewBox="0 0 400 400" enable-background="new 0 0 400 400" xml:space="preserve">
<path fill="#4C1D24" d="M148.583,101.069l-0.134,114.781l107.123,0.138l0.144-114.8L148.583,101.069z M171.079,200.499
	c-4.858-0.013-8.791-3.933-8.791-8.797c0.013-4.851,3.945-8.781,8.797-8.765c4.867,0,8.797,3.933,8.797,8.781
	C179.869,196.602,175.917,200.516,171.079,200.499z M171.11,167.129c-4.845,0-8.774-3.936-8.774-8.774
	c0.016-4.868,3.946-8.797,8.797-8.797c4.867,0.013,8.797,3.952,8.784,8.81C179.914,163.219,175.975,167.143,171.11,167.129z
	 M171.146,133.981c-4.851-0.013-8.768-3.946-8.752-8.797c0-4.851,3.917-8.781,8.784-8.768c4.851,0,8.781,3.933,8.781,8.784
	C179.958,130.051,176.013,133.981,171.146,133.981z M202.013,200.531c-4.867,0-8.803-3.933-8.797-8.797
	c0.013-4.851,3.946-8.765,8.813-8.765c4.851,0.013,8.78,3.936,8.771,8.803C210.793,196.63,206.857,200.547,202.013,200.531z
	 M202.035,167.181c-4.845-0.016-8.774-3.945-8.758-8.812c0-4.852,3.933-8.765,8.774-8.765c4.867,0.013,8.787,3.946,8.787,8.803
	C210.838,163.267,206.893,167.181,202.035,167.181z M202.07,134.013c-4.851,0-8.765-3.933-8.752-8.8
	c0-4.835,3.933-8.781,8.784-8.781c4.851,0.016,8.787,3.961,8.774,8.812C210.883,130.096,206.938,134.025,202.07,134.013z
	 M232.932,200.586c-4.855-0.007-8.791-3.952-8.775-8.804c0.007-4.854,3.946-8.784,8.781-8.768c4.867,0,8.787,3.939,8.787,8.79
	C241.719,196.669,237.782,200.586,232.932,200.586z M232.977,167.213c-4.861,0-8.791-3.933-8.775-8.8
	c-0.016-4.851,3.945-8.774,8.797-8.768c4.861,0,8.775,3.945,8.769,8.796C241.767,163.309,237.824,167.219,232.977,167.213z
	 M233.012,134.051c-4.852,0-8.781-3.926-8.766-8.791c-0.016-4.835,3.934-8.781,8.797-8.765c4.836,0,8.774,3.936,8.774,8.791
	C241.809,130.141,237.869,134.058,233.012,134.051z"/>
<path fill="#4C1D24" d="M148.387,263.978c-0.029,29.567,23.907,53.581,53.488,53.619c29.588,0.045,53.598-23.907,53.635-53.481
	l0.039-38.534l-107.101-0.135L148.387,263.978z"/>
<path fill="#4C1D24" d="M202.269-0.534c-29.571-0.045-53.564,23.907-53.609,53.491l-0.061,38.531l107.133,0.122l0.038-38.518
	C255.799,23.507,231.854-0.506,202.269-0.534z"/>
</svg>
