<?xml version="1.0" encoding="utf-8"?>
<!-- Generator: Adobe Illustrator 15.0.2, SVG Export Plug-In . SVG Version: 6.00 Build 0)  -->
<!DOCTYPE svg PUBLIC "-//W3C//DTD SVG 1.1//EN" "http://www.w3.org/Graphics/SVG/1.1/DTD/svg11.dtd">
<svg version="1.1" id="Ebene_1" xmlns="http://www.w3.org/2000/svg" xmlns:xlink="http://www.w3.org/1999/xlink" x="0px" y="0px"
	 width="400px" height="400px" viewBox="0 0 400 400" enable-background="new 0 0 400 400" xml:space="preserve">
<path fill="#A5646E" d="M335.178,194.474h8.947c3.843,0,6.966,3.12,6.966,6.957v8.995c0,3.843-3.123,6.963-6.966,6.963h-26.233
	c-3.002-17.83-18.516-31.398-37.185-31.398c-18.678,0-34.191,13.568-37.188,31.398h-102c-3.015-17.83-18.519-31.398-37.197-31.398
	s-34.176,13.568-37.19,31.398H55.923c-3.84,0-6.96-3.12-6.96-6.963v-8.996c0-3.836,3.12-6.956,6.96-6.956h5.008
	c1.738-0.019,3.485-1.181,3.485-3.501v-15.2c0-11.533,9.344-20.867,20.867-20.867h22.198c4.637,0,4.637-6.957,0-6.957H91.341
	l13.29-51.257c3.683-15.315,13.498-24.243,26.941-24.243h179.296c13.449,0,24.343,10.902,24.343,24.345
	C335.216,96.793,335.203,194.003,335.178,194.474z M109.994,140.051h16.365c3.84,0,6.954-3.114,6.954-6.957v-35.85
	c0-3.843-3.114-6.957-6.954-6.957h-4.912c-3.846,0-7.683,3.113-8.563,6.957l-8.243,35.85
	C103.753,136.938,106.154,140.051,109.994,140.051z M180.112,140.051c3.837,0,6.957-3.114,6.957-6.957v-35.85
	c0-3.843-3.12-6.957-6.957-6.957h-33.865c-3.84,0-6.957,3.113-6.957,6.957v35.85c0,3.843,3.117,6.957,6.957,6.957H180.112z
	 M161.68,148.49c-4.644,0-4.644,6.954,0,6.954h13.574c0.909,0.909,2.16,1.465,3.536,1.465c2.768,0,5.011-2.252,5.011-5.024
	c0-2.771-2.243-5.014-5.011-5.014c-1.462,0-2.778,0.627-3.699,1.619H161.68z M90.89,223.705c0,7.418,6.013,13.438,13.43,13.438
	c7.424,0,13.447-6.02,13.447-13.438c0-7.42-6.022-13.437-13.447-13.437C96.902,210.269,90.89,216.285,90.89,223.705z
	 M75.978,223.705c0-15.657,12.698-28.339,28.342-28.339c15.661,0,28.343,12.691,28.343,28.339c0,15.648-12.685,28.343-28.343,28.343
	C88.675,252.058,75.978,239.359,75.978,223.705z M267.268,223.705c0,7.418,6.012,13.438,13.437,13.438
	c7.421,0,13.431-6.02,13.431-13.438c0-7.42-6.01-13.437-13.431-13.437C273.279,210.269,267.268,216.285,267.268,223.705z
	 M252.361,223.705c0-15.657,12.691-28.339,28.336-28.339c15.658,0,28.34,12.691,28.34,28.339c0,15.648-12.686,28.343-28.34,28.343
	C265.053,252.058,252.361,239.359,252.361,223.705z"/>
</svg>
