<?xml version="1.0" encoding="utf-8"?>
<!-- Generator: Adobe Illustrator 15.0.2, SVG Export Plug-In . SVG Version: 6.00 Build 0)  -->
<!DOCTYPE svg PUBLIC "-//W3C//DTD SVG 1.1//EN" "http://www.w3.org/Graphics/SVG/1.1/DTD/svg11.dtd">
<svg version="1.1"
	 id="svg2" xmlns:dc="http://purl.org/dc/elements/1.1/" xmlns:cc="http://creativecommons.org/ns#" xmlns:svg="http://www.w3.org/2000/svg" xmlns:rdf="http://www.w3.org/1999/02/22-rdf-syntax-ns#" xmlns:inkscape="http://www.inkscape.org/namespaces/inkscape" xmlns:sodipodi="http://sodipodi.sourceforge.net/DTD/sodipodi-0.dtd" inkscape:version="0.47 r22583"
	 xmlns="http://www.w3.org/2000/svg" xmlns:xlink="http://www.w3.org/1999/xlink" x="0px" y="0px" width="374px" height="329px"
	 viewBox="0 0 374 329" enable-background="new 0 0 374 329" xml:space="preserve">
<path id="path5093" fill="#FFFFFF" stroke="#FFFFFF" d="M215.68,267.125l-0.293-11.449h93.854c0,0,0,0.775,0.789,4.969
	c0.784,4.186,1.609,6.48,1.609,6.48H215.68"/>
<path id="path5095" fill="#FFFFFF" stroke="#FFFFFF" d="M212.56,244.239c0,0-0.563-1.569-2.088-4.469
	c-1.61-3.058-2.827-5.064-2.827-5.064h100.364v9.533H212.56"/>
<path id="path5097" fill="#FFFFFF" stroke="#FFFFFF" d="M319.16,225.926c0,0-3.318-3.048-5.74-6.102
	c-2.398-3.057-4.4-5.339-4.4-5.339H45.878c0,0-1.055,2.62-3.405,5.339c-2.818,3.243-5.425,6.102-5.425,6.102h121.045
	c0,0,8.604-8.121,21.051-8.009c12.459,0.104,20.076,8.009,20.076,8.009H319.16"/>
<path id="path5099" fill="#FFFFFF" stroke="#FFFFFF" d="M145.426,244.239c0,0,0.618-1.349,1.808-4.013
	c1.208-2.656,3.012-5.521,3.012-5.521H47.47v9.533H145.426"/>
<path id="path5101" fill="#FFFFFF" stroke="#FFFFFF" d="M142.409,255.676l-0.997,11.838H42.266c0,0,1.384-3.107,2.214-5.912
	c1.186-4.208,1.398-5.926,1.398-5.926H142.409"/>
<path id="path5103" fill="#FFFFFF" stroke="#FFFFFF" d="M151.049,186.251h128.875"/>
<path id="path5105" fill="#FFFFFF" stroke="#FFFFFF" d="M51.303,207.996h18.264c0,0-3.418-5.921-4.428-8.775
	c-1.006-2.868-2.404-7.631-2.404-7.631h-5.005c0,0-0.812,3.441-2.426,7.438C53.72,203.027,51.303,207.996,51.303,207.996"/>
<path id="path5107" fill="#FFFFFF" stroke="#FFFFFF" d="M83.816,207.996l5.421-16.406H283.22c0,0,0.608,1.047,1.614,2.576
	c0.996,1.52,2.823,4.482,2.823,4.482s0.997-2.201,1.709-4.194c0.474-1.416,0.983-2.864,0.983-2.864h6.398c0,0,0.889,3.4,3.045,7.92
	c2.168,4.595,4.414,8.486,4.414,8.486H83.816"/>
<path id="path5109" fill="#FFFFFF" stroke="#FFFFFF" d="M260.641,186.251h19.373c0,0-1.709-3.432-3.297-7.444
	c-1.623-4.006-2.422-7.059-2.422-7.059h-7.819c0,0-1.015,3.437-2.417,7.059C262.66,182.428,260.641,186.251,260.641,186.251"/>
<path id="path5111" fill="#FFFFFF" stroke="#FFFFFF" d="M268.068,165.449h4.635l-2.417-10.102L268.068,165.449"/>
<path id="path5113" fill="#FFFFFF" stroke="#FFFFFF" d="M291.855,186.824h3.621l-1.912-6.873L291.855,186.824"/>
<path id="path5115" fill="#FFFFFF" stroke="#FFFFFF" d="M293.971,173.088v-3.044l-9.434,1.704L293.971,173.088"/>
<path id="path5117" fill="#FFFFFF" stroke="#FFFFFF" d="M86.117,171.365h35.521l-1.479,3.819h-2.016v5.335l3.612,3.437
	c0,0,2.404-1.903,5.01-6.106c2.615-4.193,3.612-6.484,3.612-6.484H246.99c0,0-0.389,0.762,2.016,5.723
	c2.422,4.965,6.007,9.163,6.007,9.163H88.538l1.809-5.731l-0.1-5.249h-2.516L86.117,171.365"/>
<path id="path5119" fill="#FFFFFF" stroke="#FFFFFF" d="M132.984,165.264c0,0,1.416-2.854,2.413-6.868
	c1.005-4.009,2.408-8.586,2.408-8.586s1.001,4.392,2.404,8.586c1.416,4.194,2.602,6.868,2.602,6.868H132.984"/>
<path id="path5121" fill="#FFFFFF" stroke="#FFFFFF" d="M151.456,165.264c0,0,2.209-3.048,2.209-8.775
	c0-5.723-2.209-9.154-2.209-9.154h71.652c0,0,0.83,2.083,3.018,7.819c2.416,6.291,4.414,10.11,4.414,10.11H151.456"/>
<path id="path5123" fill="#FFFFFF" stroke="#FFFFFF" d="M236.951,165.264h10.445l4.405-4.771c0,0-2.196-4.194-3.603-8.004
	c-1.403-3.82-2.012-5.154-2.012-5.154h-9.43c0,0-1.19,3.053-2.426,6.3c-1.187,3.233-3.392,6.859-3.392,6.859L236.951,165.264"/>
<path id="path5125" fill="#FFFFFF" stroke="#FFFFFF" d="M238.156,142.463h6.534l-3.302-14.395L238.156,142.463"/>
<path id="path5127" fill="#FFFFFF" stroke="#FFFFFF" d="M270.084,146.188v-4.96l-9.443,2.295L270.084,146.188"/>
<path id="path5129" fill="#FFFFFF" stroke="#FFFFFF" d="M241.389,123.487v-4.96l-9.442,2.291L241.389,123.487"/>
<path id="path5131" fill="#FFFFFF" stroke="#FFFFFF" d="M148.628,142.757h73.479c0,0-2.417-7.635-2.606-12.411
	c-0.212-4.757-0.212-8.767-0.212-8.767l-3.802-1.907v-4.393l-24.942-0.041l-0.162,4.433l-3.013,1.524v3.243
	c0,0,0.627,2.665-2.791,2.665s-5.633-7.811-5.633-7.811l-5.817,16.78c0,0-1.204,3.432-5.005,3.432c-2.11,0-3.076-0.943-3.017-2.282
	c0.095-2.196,3.301-2.575,3.301-2.575s-1.299-2.016-3.527-7.161c-2.178-5.146-3.693-12.401-3.693-12.401h-5.407
	c0,0-2.706,9.542-3.923,12.401c-1.186,2.859-3.607,7.351-3.607,7.351s5.015-0.482,5.015,2.386c0,1.709-1.809,2.476-2.805,2.282
	c-1.023-0.181-5.123,0.099-5.123,0.099L148.628,142.757"/>
<path id="path5133" fill="#FFFFFF" stroke="#FFFFFF" d="M156.984,109.751h2.715l-1.308-6.484L156.984,109.751"/>
<path id="path5135" fill="#FFFFFF" stroke="#FFFFFF" d="M158.269,96.403v-4.969l-9.429,2.295L158.269,96.403"/>
<path id="path5137" fill="#FFFFFF" stroke="#FFFFFF" d="M201.24,26.956V22l-9.447,2.295L201.24,26.956"/>
<path id="path5139" fill="#FFFFFF" stroke="#FFFFFF" d="M190.603,109.94h24.884V98.121l4.415-1.533v-4.004l-4.415-1.709V80.191
	h-24.884v10.683l-4.419,1.516v4.198l4.613,1.533L190.603,109.94"/>
<path id="path5141" fill="#FFFFFF" stroke="#FFFFFF" d="M103.284,129.981v-4.974l-9.429,2.291L103.284,129.981"/>
<path id="path5143" fill="#FFFFFF" stroke="#FFFFFF" d="M89.039,165.065h28.893c0,0-4.415-6.67-6.625-10.494
	c-2.183-3.806-3.607-7.427-3.607-7.427h-8.221c0,0-0.609,1.132-4.217,7.427C91.659,160.867,89.039,165.065,89.039,165.065"/>
<path id="path5145" fill="#FFFFFF" stroke="#FFFFFF" d="M101.075,142.757h4.631l-2.228-5.908L101.075,142.757"/>
<path id="path5147" fill="#FFFFFF" stroke="#FFFFFF" d="M60.331,176.523v-4.974l-9.443,2.3L60.331,176.523"/>
<path id="path5149" fill="#FFFFFF" stroke="#FFFFFF" d="M58.721,186.251h3.21l-1.601-3.634L58.721,186.251"/>
<path id="path5151" fill="#FFFFFF" stroke="#FFFFFF" d="M183.582,75.988h38.524c0,0-6.021-8.767-10.823-17.556
	c-4.843-8.767-9.254-20.983-9.254-20.983s-4.396,10.692-9.239,21.366C187.996,69.49,183.582,75.988,183.582,75.988"/>
</svg>
