<?xml version="1.0" encoding="utf-8"?>
<!-- Generator: Adobe Illustrator 15.0.2, SVG Export Plug-In . SVG Version: 6.00 Build 0)  -->
<!DOCTYPE svg PUBLIC "-//W3C//DTD SVG 1.1//EN" "http://www.w3.org/Graphics/SVG/1.1/DTD/svg11.dtd">
<svg version="1.1" id="Layer_1" xmlns="http://www.w3.org/2000/svg" xmlns:xlink="http://www.w3.org/1999/xlink" x="0px" y="0px"
	 width="100px" height="137.667px" viewBox="0 -20.833 100 137.667" enable-background="new 0 -20.833 100 137.667"
	 xml:space="preserve">
<g>
	<path d="M70.298,49.061c-3.031,0.656-4.963,3.644-4.309,6.675l6.881,31.996L21.793,54.742c-2.607-1.687-6.083-0.936-7.766,1.669
		c-1.684,2.606-0.936,6.081,1.669,7.769L66.8,97.183l-32.727,7.041c-3.032,0.652-4.962,3.641-4.31,6.672
		c0.653,3.032,3.64,4.964,6.671,4.31l44.522-9.581c0.232-0.048,0.455-0.115,0.67-0.191c1.711-0.112,3.35-0.999,4.352-2.552
		c0.971-1.501,1.125-3.294,0.59-4.864c-0.008-0.042-0.012-0.081-0.018-0.121l-9.58-44.522
		C76.317,50.342,73.329,48.411,70.298,49.061z"/>
</g>
<g>
	<path d="M74.637,42.561l9.58-44.522c0.006-0.04,0.01-0.079,0.018-0.121c0.535-1.57,0.381-3.363-0.59-4.864
		c-1.002-1.553-2.641-2.439-4.352-2.552c-0.215-0.076-0.438-0.144-0.67-0.191l-44.522-9.581c-3.031-0.654-6.018,1.277-6.671,4.31
		c-0.652,3.031,1.278,6.02,4.31,6.672l32.727,7.041L13.363,31.754c-2.605,1.688-3.353,5.162-1.669,7.769
		c1.683,2.604,5.159,3.355,7.766,1.669L70.537,8.202l-6.881,31.996c-0.654,3.031,1.277,6.019,4.309,6.675
		C70.996,47.522,73.984,45.592,74.637,42.561z"/>
</g>
</svg>
