<?xml version="1.0" encoding="utf-8"?>
<!-- Generator: Adobe Illustrator 15.0.2, SVG Export Plug-In . SVG Version: 6.00 Build 0)  -->
<!DOCTYPE svg PUBLIC "-//W3C//DTD SVG 1.1//EN" "http://www.w3.org/Graphics/SVG/1.1/DTD/svg11.dtd">
<svg version="1.1" id="Layer_1" xmlns="http://www.w3.org/2000/svg" xmlns:xlink="http://www.w3.org/1999/xlink" x="0px" y="0px"
	 width="124.125px" height="100px" viewBox="0 0 124.125 100" enable-background="new 0 0 124.125 100" xml:space="preserve">
<path d="M119.607,45.328c-0.027-0.031-0.053-0.062-0.082-0.092L87.322,13.033c-2.19-2.193-5.748-2.193-7.941-0.001
	c-2.192,2.194-2.192,5.75,0,7.944l23.143,23.142H82.135h-40.42H21.328L44.47,20.976c2.192-2.193,2.192-5.75,0-7.944
	c-2.193-2.192-5.751-2.192-7.942,0.001L4.325,45.236c-0.029,0.029-0.055,0.061-0.082,0.092c-1.305,1.028-2.145,2.619-2.145,4.408
	c0,1.846,0.896,3.479,2.271,4.502c0.14,0.182,0.29,0.356,0.457,0.523L37.03,86.967c2.192,2.193,5.748,2.193,7.942,0
	c2.192-2.193,2.192-5.751,0-7.943l-23.67-23.67h20.413h40.42h20.413l-23.67,23.67c-2.192,2.192-2.192,5.75,0,7.943
	c2.194,2.193,5.75,2.193,7.942,0l32.203-32.203c0.166-0.168,0.316-0.344,0.456-0.524c1.376-1.022,2.271-2.656,2.271-4.502
	C121.752,47.947,120.912,46.356,119.607,45.328z"/>
</svg>
