<?xml version="1.0" encoding="utf-8"?>
<!-- Generator: Adobe Illustrator 15.0.2, SVG Export Plug-In . SVG Version: 6.00 Build 0)  -->
<!DOCTYPE svg PUBLIC "-//W3C//DTD SVG 1.1//EN" "http://www.w3.org/Graphics/SVG/1.1/DTD/svg11.dtd">
<svg version="1.1" id="Ebene_1" xmlns="http://www.w3.org/2000/svg" xmlns:xlink="http://www.w3.org/1999/xlink" x="0px" y="0px"
	 width="67px" height="100px" viewBox="0 0 67 100" enable-background="new 0 0 67 100" xml:space="preserve">
<g id="Layer_x0020_1">
	<path fill="#FFFFFF" d="M51.658,63.355V100H34.688V78.438h-2.167V100H15.55V63.355H51.658L51.658,63.355z M15.61,62.117
		l1.214-10.769h0l2.391-21.208c0.329-1.422,1.457-2.277,2.919-2.255h3.348h1.123h13.443h0.957h4.068
		c1.463-0.021,2.59,0.833,2.918,2.255l0.014,0.111l2.378,21.097l0,0l1.214,10.769H15.61z M15.71,50.178l-1.757,6.258
		c-0.255,0.796-0.78,1.308-1.55,1.111l-0.194-0.051l-0.41,1.512c1.36,1.178,2.188,2.898,2.392,4.814
		c0.207,1.938-1.693,6.768-5.099,5.596c-2.766-0.951,2-7.815-1.439-8.175c-1.36-0.219-2.002,1.282-2.123,2.286
		c-1.064,8.888-5.757,3.831-5.422,0.293c0.282-2.977,2.252-5.482,5.285-6.209l0.488-1.792L5.387,55.69
		c-0.851-0.296-1.019-1.209-0.582-2.122l6.719-17.328c1.344-2.686,3.023-5.493,6.426-5.933L15.71,50.178L15.71,50.178z
		 M49.258,30.314c3.342,0.46,4.881,3.253,6.218,5.927l6.719,17.328c0.438,0.913,0.27,1.826-0.581,2.122l-0.495,0.131l0.487,1.792
		c3.033,0.727,5.004,3.232,5.285,6.209c0.336,3.538-4.357,8.595-5.422-0.293c-0.119-1.004-0.762-2.505-2.122-2.286
		c-3.438,0.359,1.327,7.224-1.439,8.175c-3.406,1.172-5.306-3.657-5.099-5.596c0.203-1.916,1.031-3.637,2.392-4.814l-0.409-1.512
		l-0.195,0.051c-0.77,0.196-1.294-0.315-1.549-1.111l-1.467-5.223l0.033-0.004L49.258,30.314L49.258,30.314z M26.605,26.971v-1.98
		h-1.642c-2.37,0-4.31-1.939-4.31-4.31V9.104c0-2.37,1.939-4.31,4.31-4.31h1.642V0.729C26.605,0.328,26.891,0,27.239,0h12.177
		c0.348,0,0.633,0.328,0.633,0.729v4.065h1.643c2.37,0,4.31,1.939,4.31,4.31V20.68c0,2.371-1.939,4.31-4.31,4.31h-1.643v1.98H26.605
		L26.605,26.971z M33.325,18.964c0.827,0,1.73-0.145,2.525-0.286c0.922-0.164,1.175-0.326,1.946-0.717
		c0.855-0.434,1.005,0.444,0.499,0.863c-0.425,0.353-1.13,0.806-2.416,1.02c-0.816,0.136-1.675,0.235-2.581,0.24
		c-0.804-0.001-1.615-0.067-2.437-0.212c-0.889-0.184-1.765-0.397-2.476-0.969c-0.556-0.447-0.391-1.318,0.502-0.968
		c0.836,0.328,1.083,0.56,2.001,0.743C31.857,18.872,32.498,18.964,33.325,18.964z M37.58,10.178c0.966,0,1.749,0.784,1.749,1.75
		c0,0.966-0.783,1.75-1.749,1.75c-0.967,0-1.75-0.784-1.75-1.75C35.83,10.961,36.613,10.178,37.58,10.178z M29.224,10.178
		c0.966,0,1.75,0.784,1.75,1.75c0,0.966-0.784,1.75-1.75,1.75s-1.75-0.784-1.75-1.75C27.474,10.961,28.257,10.178,29.224,10.178z"/>
</g>
</svg>
