<?xml version="1.0" encoding="utf-8"?>
<!-- Generator: Adobe Illustrator 15.0.2, SVG Export Plug-In . SVG Version: 6.00 Build 0)  -->
<!DOCTYPE svg PUBLIC "-//W3C//DTD SVG 1.1//EN" "http://www.w3.org/Graphics/SVG/1.1/DTD/svg11.dtd">
<svg version="1.1" id="Layer_1" xmlns="http://www.w3.org/2000/svg" xmlns:xlink="http://www.w3.org/1999/xlink" x="0px" y="0px"
	 width="100px" height="100px" viewBox="0 0 100 100" enable-background="new 0 0 100 100" xml:space="preserve">
<path fill="#FFFFFF" d="M72.432,53.5h-46V13h46V53.5z M29.431,50.5h40V16h-40V50.5z M55.057,57.25c-1.312,0-2.375,1.062-2.375,2.375
	S53.744,62,55.057,62c1.312,0,2.375-1.062,2.375-2.375S56.367,57.25,55.057,57.25z M60.973,57.25c-1.312,0-2.375,1.062-2.375,2.375
	S59.661,62,60.973,62c1.312,0,2.375-1.062,2.375-2.375S62.284,57.25,60.973,57.25z M66.889,57.25c-1.312,0-2.375,1.062-2.375,2.375
	S65.578,62,66.889,62c1.312,0,2.375-1.062,2.375-2.375S68.201,57.25,66.889,57.25z M64.557,70.5V68h17.375V5.5h-65V68h17.375v2.5
	H11.597v24h75.667v-24H64.557z M19.931,8.5h59V65h-59V8.5z M37.306,70.417v-2h24.25v2H37.306z M84.264,91.5H14.597v-18h69.667V91.5z
	 M79.223,85.208H51.598v-7.375h27.625V85.208z M54.598,82.208h21.625v-1.375H54.598V82.208z M22.66,85.958
	c-2.447,0-4.438-1.991-4.438-4.438c0-2.446,1.991-4.438,4.438-4.438c2.447,0,4.438,1.991,4.438,4.438
	C27.098,83.967,25.106,85.958,22.66,85.958z M22.66,80.083c-0.792,0-1.438,0.646-1.438,1.438s0.645,1.438,1.438,1.438
	s1.438-0.645,1.438-1.438S23.452,80.083,22.66,80.083z M32.285,85.958c-2.447,0-4.438-1.991-4.438-4.438
	c0-2.446,1.991-4.438,4.438-4.438c2.447,0,4.438,1.991,4.438,4.438C36.723,83.967,34.731,85.958,32.285,85.958z M32.285,80.083
	c-0.792,0-1.438,0.646-1.438,1.438s0.645,1.438,1.438,1.438s1.438-0.645,1.438-1.438S33.077,80.083,32.285,80.083z"/>
</svg>
