<?xml version="1.0" encoding="utf-8"?>
<!-- Generator: Adobe Illustrator 15.0.2, SVG Export Plug-In . SVG Version: 6.00 Build 0)  -->
<!DOCTYPE svg PUBLIC "-//W3C//DTD SVG 1.1//EN" "http://www.w3.org/Graphics/SVG/1.1/DTD/svg11.dtd">
<svg version="1.1" id="Layer_1" xmlns="http://www.w3.org/2000/svg" xmlns:xlink="http://www.w3.org/1999/xlink" x="0px" y="0px"
	 width="100px" height="100px" viewBox="0 0 100 100" enable-background="new 0 0 100 100" xml:space="preserve">
<path fill="#FFFFFF" d="M27.344,57.133c0,0.69,0.56,1.25,1.25,1.25c0.69,0,1.25-0.56,1.25-1.25v-6.322
	c0.764,0.611,1.708,1.123,2.852,1.403v6.679c0,0.69,0.56,1.25,1.25,1.25c0.69,0,1.25-0.56,1.25-1.25v-6.461
	c0.045-0.002,0.086,0,0.132-0.002c1.036-0.07,1.928-0.234,2.72-0.451v6.914c0,0.69,0.56,1.25,1.25,1.25s1.25-0.56,1.25-1.25v-7.944
	c0.552-0.326,1.006-0.667,1.354-0.987c0.212,0.189,0.473,0.386,0.758,0.583c-0.19,0.286-0.271,0.644-0.178,1.002
	c0.741,2.835,1.054,6.427,0.338,7.252c-0.174,0.201-0.37,0.414-0.58,0.642c-1.827,1.981-4.884,5.297-3.366,11.029
	c1.582,5.985,4.33,8.598,4.446,8.705c0.092,0.086,0.196,0.157,0.31,0.212c0.188,0.091,1.97,0.886,6.432,0.886
	c4.463,0,6.245-0.795,6.433-0.886c0.112-0.055,0.218-0.126,0.31-0.212c0.116-0.107,2.865-2.72,4.446-8.705
	c1.519-5.73-1.539-9.047-3.364-11.027c-0.211-0.229-0.408-0.441-0.582-0.644c-0.716-0.825-0.402-4.417,0.34-7.252
	c0.101-0.382-0.004-0.758-0.224-1.053c0.255-0.18,0.489-0.359,0.683-0.532c0.349,0.32,0.803,0.661,1.354,0.987v7.944
	c0,0.69,0.56,1.25,1.25,1.25s1.25-0.56,1.25-1.25v-6.914c0.791,0.217,1.685,0.381,2.719,0.451c0.046,0.002,0.089,0,0.134,0.002
	v6.461c0,0.69,0.56,1.25,1.25,1.25c0.689,0,1.25-0.56,1.25-1.25v-6.68c1.145-0.279,2.088-0.789,2.851-1.398v6.318
	c0,0.69,0.56,1.25,1.25,1.25s1.25-0.56,1.25-1.25v-8.924c0-0.211-0.065-0.4-0.157-0.574c0.037-0.1,0.074-0.2,0.104-0.293
	c0.188-0.612-0.117-1.268-0.707-1.518c-5.549-2.357-9.359-15.013-10.4-19.856c-0.1-5.524-6.178-6.237-11.478-6.237
	c-0.006,0-0.011,0.003-0.017,0.003c-0.006,0-0.011-0.003-0.017-0.003c-5.3,0-11.377,0.713-11.477,6.237
	c-1.041,4.844-4.852,17.499-10.401,19.856c-0.59,0.25-0.895,0.905-0.707,1.518c0.028,0.093,0.065,0.192,0.103,0.293
	c-0.092,0.174-0.157,0.363-0.157,0.574v8.924H27.344z M49.983,22.23c0.006,0,0.011-0.003,0.017-0.003s0.011,0.003,0.017,0.003
	c1.446,0,2.659,0.063,3.684,0.179l3.09,24.721c0.02,0.159,0.068,0.308,0.143,0.44c-0.254,0.394-1.789,2.361-6.903,2.407
	c-5.079-0.041-6.691-2.023-6.958-2.409c0.071-0.133,0.12-0.28,0.14-0.438l3.09-24.722C47.324,22.294,48.537,22.23,49.983,22.23z
	 M58.831,69.829c-1.179,4.461-3.054,6.771-3.587,7.358c-0.502,0.166-2.076,0.582-5.185,0.582c-3.133,0-4.708-0.424-5.187-0.58
	c-0.534-0.582-2.391-2.846-3.585-7.36c-1.166-4.408,1.119-6.886,2.788-8.696c0.229-0.248,0.443-0.48,0.633-0.699
	c0.094-0.107,0.173-0.229,0.252-0.354c0.535-0.143,0.938-0.607,0.938-1.188v-6.918c0.73,0.189,1.567,0.332,2.502,0.416
	c0.077,0.021,0.148,0.055,0.231,0.06c0.041,0.002,0.078,0.001,0.118,0.003v6.439c0,0.689,0.56,1.25,1.25,1.25
	c0.69,0,1.25-0.561,1.25-1.25v-6.439c0.04-0.002,0.077-0.001,0.117-0.003c0.083-0.005,0.153-0.039,0.231-0.06
	c0.935-0.084,1.771-0.227,2.502-0.416v6.918c0,0.629,0.473,1.127,1.077,1.215c0.073,0.112,0.146,0.227,0.231,0.326
	c0.189,0.219,0.404,0.451,0.634,0.7C57.713,62.943,59.998,65.423,58.831,69.829z M58.995,26.105c0,0.087,0.009,0.173,0.026,0.258
	c0.149,0.712,3.594,16.697,10.756,21.165c-0.635,1.052-2.055,2.6-4.938,2.406c-4.372-0.291-5.576-2.393-5.615-2.461
	c-0.011-0.022-0.029-0.039-0.041-0.06c0.071-0.186,0.113-0.384,0.088-0.595l-2.987-23.905C58.562,23.636,58.995,24.84,58.995,26.105
	z M40.979,26.363c0.018-0.085,0.026-0.171,0.026-0.258c0-1.266,0.433-2.47,2.712-3.191L40.73,46.819
	c-0.026,0.211,0.016,0.408,0.087,0.594c-0.009,0.015-0.022,0.025-0.03,0.04c-0.049,0.089-1.254,2.19-5.627,2.481
	c-2.838,0.189-4.282-1.361-4.928-2.412C37.39,43.046,40.829,27.075,40.979,26.363z"/>
</svg>
