<?xml version="1.0" encoding="utf-8"?>
<!-- Generator: Adobe Illustrator 15.0.2, SVG Export Plug-In . SVG Version: 6.00 Build 0)  -->
<!DOCTYPE svg PUBLIC "-//W3C//DTD SVG 1.1//EN" "http://www.w3.org/Graphics/SVG/1.1/DTD/svg11.dtd">
<svg version="1.1" id="Ebene_1" xmlns="http://www.w3.org/2000/svg" xmlns:xlink="http://www.w3.org/1999/xlink" x="0px" y="0px"
	 width="100px" height="87px" viewBox="0 0 100 87" enable-background="new 0 0 100 87" xml:space="preserve">
<g id="Layer_x0020_1">
	<path fill="#FFFFFF" d="M43.164,58.777h8.086c1.169,0,2.125-0.957,2.125-2.126v-3.354c0-1.169-2.771-5.479-3.939-5.479h-0.287
		V30.091c0.231-0.098,0.423-0.217,0.556-0.362c2.836-3.15,11.219-6.823,10.622-10.444c-0.148-3.313-5.137,1.445-10.735,1.051
		c-7.2-0.506-8.419-0.256-8.36,0.336c-1.008,3.187-2.18,5.581,3.122,9.201c0.222,0.145,0.536,0.263,0.904,0.353v17.591h-0.313
		c-1.169,0-3.904,4.311-3.904,5.479v3.354C41.039,57.82,41.995,58.777,43.164,58.777L43.164,58.777z M4.156,52.609
		c6.302-0.389,7.813,4.412,12.527,10.035l2.665-1.888c-2.153-1.312,11.776-10.253,6.528-24.118
		c-3.237-6.142,3.287-13.08-0.274-20.004c-2.333,3.829-6.039,2.656-8.699,5.889c-1.754,2.132-5.368-0.598-4.814-5.278L22.445,3.813
		l0.182-3.666c1.72,0.763,3.365,1.936,4.005,3.457c8.327,2.761,13.134,8.357,13.693,17.375c-1.498,3.568-2.213,6.047,4.221,10.304
		v13.207c-1.452-0.412-2.965-1.012-4.726-1.671c-6.543,4.215-5.205,7.406-8.46,10.208c-4.941,4.252-6.57,11.47-8.46,10.208
		l-0.186,5.107c19.656,14.603,38.952,11.613,56.395-0.9c0.977-0.7,1.935-1.627,2.885-2.675c-0.041,0.026-0.082,0.054-0.123,0.08
		l-0.203-6.615c-1.361,1.06-0.914-3.068-2.506-6.618c-1.85-4.117-11.456-0.911-17.688-12.247c-5.222,3.567-8.7,5.153-11.615,5.571
		V31.163c3.076-3.527,11.815-7.682,11.168-11.736c3.649-1.137,6.74-1.557,11.59,1.866c5.382-3.26,8.764-2.465,10.973,1.431
		c0.941,1.663,1.215,8.454,3.818,4.455c0.834,2.207,0.396,3.859-2.6,4.551c0.934,2.4,2.455,2.202,4.307,0.545
		c0.406,2.529-0.579,4.244-3.41,4.879c0.8,2.479,3.018,2.221,6.029,0.428c-1.57,6.218-9.238,6.838-12.319-0.454
		c-1.875-3.171,4.046-17.702-4.191-12.767c1.276,3.568,1.837,7.165,0.415,10.841c-1.437,3.214-0.721,5.939,2.592,8.073
		c3.918,1.325,2.925,3.778,4.82,7.767c0.58,1.7,3.814,4.665,2.494,5.351l1.867,1.759c2.559-3.05,5.197-5.56,8.105-5.542
		c8.334-0.411,3.398,11.006-1.457,7.931c-1.568-0.878,0.022-6.503-2.023-1.042c-9.653,25.775-58.807,46.035-83.834-0.496
		c-1.78-3.768,0,0-1.942,1.482C0.92,63.848-3.612,52.564,4.156,52.609L4.156,52.609z M44.754,55.861h4.804
		c0.695,0,1.264-0.457,1.264-1.016v-1.604c0-0.559-1.647-2.619-2.342-2.619h-2.669c-0.695,0-2.32,2.061-2.32,2.619v1.604
		C43.491,55.404,44.059,55.861,44.754,55.861z"/>
</g>
</svg>
