<?xml version="1.0" encoding="utf-8"?>
<!-- Generator: Adobe Illustrator 15.0.2, SVG Export Plug-In . SVG Version: 6.00 Build 0)  -->
<!DOCTYPE svg PUBLIC "-//W3C//DTD SVG 1.1//EN" "http://www.w3.org/Graphics/SVG/1.1/DTD/svg11.dtd">
<svg version="1.1" id="Layer_1" xmlns="http://www.w3.org/2000/svg" xmlns:xlink="http://www.w3.org/1999/xlink" x="0px" y="0px"
	 width="100px" height="95.609px" viewBox="0 0 100 95.609" enable-background="new 0 0 100 95.609" xml:space="preserve">
<path fill="#FFFFFF" d="M99.921,22.892c-0.017-0.053-0.038-0.101-0.058-0.151c-0.045-0.113-0.096-0.223-0.158-0.326
	c-0.031-0.05-0.064-0.1-0.102-0.146c-0.074-0.097-0.155-0.184-0.248-0.266c-0.041-0.037-0.078-0.075-0.121-0.108
	c-0.02-0.015-0.034-0.036-0.057-0.05c-0.131-0.091-0.271-0.163-0.418-0.217l-26.044-9.97V10c0-0.406-0.045-0.8-0.133-1.184
	c-0.175-0.764-0.519-1.48-1.008-2.15c-0.245-0.335-0.525-0.657-0.841-0.968c-0.225-0.223-0.467-0.437-0.725-0.646
	c-0.099-0.081-0.207-0.155-0.31-0.232c-0.166-0.126-0.329-0.251-0.505-0.37c-0.143-0.098-0.291-0.189-0.439-0.282
	c-0.148-0.095-0.297-0.188-0.453-0.28c-0.178-0.104-0.361-0.204-0.549-0.303c-0.136-0.072-0.271-0.146-0.41-0.215
	c-0.214-0.108-0.435-0.211-0.656-0.314C66.57,3,66.451,2.946,66.33,2.893c-0.252-0.109-0.508-0.218-0.77-0.322
	c-0.098-0.037-0.194-0.074-0.291-0.112c-0.293-0.11-0.586-0.219-0.889-0.323c-0.068-0.023-0.137-0.044-0.205-0.068
	c-0.335-0.11-0.672-0.22-1.021-0.323c-2.135-0.637-4.494-1.103-6.938-1.392c-0.982-0.115-1.979-0.205-2.979-0.263
	c-0.004,0-0.004,0-0.004,0C52.234,0.031,51.23,0,50.233,0h-0.001H50.23c-9.536,0-19.599,2.684-21.965,7.706
	C27.927,8.423,27.747,9.188,27.747,10v1.175L1.242,21.164c-0.146,0.054-0.286,0.125-0.417,0.215
	c-0.02,0.013-0.033,0.031-0.053,0.046c-0.046,0.034-0.084,0.075-0.126,0.113c-0.089,0.08-0.17,0.164-0.243,0.257
	c-0.038,0.05-0.074,0.1-0.106,0.154c-0.062,0.1-0.112,0.204-0.155,0.313c-0.021,0.055-0.044,0.106-0.062,0.163
	c-0.046,0.162-0.075,0.327-0.078,0.499c0,0.007-0.002,0.013-0.002,0.02c0,0.001,0,0.001,0,0.004c0,0.001,0,0.001,0,0.002v52.258
	c0,0.789,0.487,1.497,1.224,1.778l48.325,18.497c0.017,0.008,0.035,0.004,0.052,0.011c0.204,0.071,0.414,0.115,0.629,0.115
	c0.213,0,0.42-0.043,0.622-0.111c0.018-0.006,0.033-0.003,0.051-0.011l47.865-18.034c0.741-0.279,1.232-0.99,1.232-1.783V23.412
	C100,23.233,99.968,23.06,99.921,22.892z M31.642,9.516c0.05-0.146,0.126-0.298,0.219-0.449c0.032-0.053,0.077-0.104,0.115-0.157
	c0.069-0.101,0.142-0.2,0.229-0.302c0.057-0.064,0.126-0.131,0.19-0.196c0.087-0.088,0.176-0.177,0.276-0.265
	c0.085-0.072,0.177-0.146,0.27-0.221c0.099-0.079,0.2-0.156,0.309-0.235c0.113-0.082,0.234-0.163,0.358-0.243
	c0.102-0.067,0.212-0.135,0.322-0.2c0.146-0.089,0.299-0.18,0.461-0.268c0.099-0.054,0.203-0.105,0.306-0.161
	c0.19-0.098,0.382-0.194,0.59-0.292c0.072-0.033,0.149-0.066,0.225-0.1c2.062-0.929,4.876-1.728,8.298-2.19
	c0.012-0.002,0.023-0.004,0.034-0.005c0.491-0.064,0.992-0.125,1.508-0.174c0.021-0.003,0.04-0.004,0.06-0.007
	C45.928,4,46.457,3.957,46.998,3.923c0.003,0,0.003,0,0.005,0c1.038-0.067,2.109-0.109,3.229-0.109c1.177,0,2.309,0.04,3.395,0.113
	c1.816,0.122,3.493,0.341,5.025,0.627c0.106,0.021,0.214,0.04,0.318,0.062c1.213,0.235,2.329,0.518,3.344,0.828
	c0.103,0.032,0.205,0.064,0.307,0.097c0.49,0.158,0.964,0.32,1.402,0.491c0.006,0.002,0.012,0.005,0.019,0.008
	c0.424,0.166,0.815,0.339,1.188,0.514c0.09,0.043,0.181,0.086,0.271,0.13c0.362,0.179,0.707,0.36,1.015,0.543
	c0.01,0.007,0.019,0.012,0.027,0.02c0.297,0.179,0.561,0.359,0.803,0.542c0.064,0.048,0.127,0.096,0.188,0.145
	c0.234,0.188,0.449,0.375,0.627,0.562c0.488,0.521,0.744,1.034,0.744,1.507c0,2.521-7.272,6.187-18.671,6.187
	c-0.843,0-1.654-0.025-2.45-0.063c-0.239-0.01-0.47-0.027-0.704-0.042c-0.569-0.036-1.129-0.08-1.673-0.133
	c-0.225-0.022-0.449-0.043-0.67-0.068c-0.638-0.072-1.259-0.156-1.859-0.251c-0.08-0.013-0.165-0.022-0.244-0.036
	c-0.704-0.115-1.374-0.247-2.02-0.39c-0.094-0.021-0.182-0.043-0.273-0.064c-0.553-0.127-1.082-0.264-1.586-0.407
	c-0.1-0.028-0.2-0.058-0.297-0.086c-2.702-0.8-4.688-1.814-5.814-2.826c-0.044-0.039-0.086-0.077-0.125-0.116
	c-0.102-0.097-0.201-0.191-0.286-0.287c-0.113-0.126-0.217-0.254-0.301-0.378c-0.038-0.056-0.064-0.11-0.096-0.164
	c-0.059-0.104-0.11-0.204-0.15-0.306c-0.02-0.047-0.038-0.095-0.052-0.142c-0.042-0.144-0.074-0.287-0.074-0.425
	C31.558,9.842,31.587,9.681,31.642,9.516z M68.904,15.729v6.526c0,2.521-7.271,6.185-18.668,6.185v-8.441
	C57.285,19.998,64.602,18.524,68.904,15.729z M27.747,15.249v0.002v7.004c0,6.494,11.584,9.999,22.483,9.999
	c10.902,0,22.487-3.505,22.487-9.999v-6.52l20.01,7.66l-23.271,8.771l-19.22,7.244l-17.323-6.633L7.274,22.964L27.747,15.249z
	 M96.189,74.351l-44.053,16.6V42.767l15.686-5.911l28.367-10.688V74.351z"/>
</svg>
