<?xml version="1.0" encoding="utf-8"?>
<!-- Generator: Adobe Illustrator 15.0.2, SVG Export Plug-In . SVG Version: 6.00 Build 0)  -->
<!DOCTYPE svg PUBLIC "-//W3C//DTD SVG 1.1//EN" "http://www.w3.org/Graphics/SVG/1.1/DTD/svg11.dtd">
<svg version="1.1" id="Your_Icon" xmlns="http://www.w3.org/2000/svg" xmlns:xlink="http://www.w3.org/1999/xlink" x="0px" y="0px"
	 width="100px" height="100px" viewBox="0 0 100 100" enable-background="new 0 0 100 100" xml:space="preserve">
<path fill="#FFFFFF" d="M62.582,59.005c-0.715-1.999-2.506-5.048-4.123-7.603c1.239-2.375,2.021-4.918,2.277-7.536
	c-0.422,0.024-0.844,0.038-1.27,0.038c-2.461,0-4.869-0.404-7.184-1.203c-1.37,2.141-3.223,3.778-5.428,4.786
	c-1.624,0.742-3.381,1.118-5.21,1.118c-6.674,0-13.483-5.059-16.925-12.59c-1.89-4.137-2.517-8.449-2.052-12.328
	c-7.597,3.498-13.022,9.794-14.563,16.875c-0.021,0.098-0.043,0.197-0.063,0.296c-0.039,0.193-0.076,0.386-0.109,0.58
	c-0.767,4.335-0.519,9.148-4.908,11.341c-0.92,0.46,1.387,2.213,2.288,1.763c1.325-0.663,2.232-1.706,2.913-2.772
	c0.939,13.496,16.252,24.215,16.252,24.215l8.492-6.743l-2.526-3.325c3.054,0.259,3.928,0.152,7.712-0.516
	c2.934-0.517,5.678-1.422,8.18-2.629l-1.719,6.533l11.895,4.252C56.512,73.559,64.016,63.014,62.582,59.005z"/>
<path fill="#FFFFFF" d="M95.232,15.786c-0.842-4.781-3.885-8.874-8.342-11.23c-0.664-0.35-1.375-0.516-2.076-0.516
	c-1.598,0-3.142,0.862-3.938,2.372c-1.148,2.173-0.318,4.866,1.855,6.015c2.012,1.063,3.373,2.851,3.734,4.906
	c0.315,1.793-0.15,3.565-1.172,5.049c-0.266,0.102-0.562,0.181-0.911,0.226c-0.207,0.027-0.409,0.04-0.606,0.04
	c-2.094,0-3.601-1.478-4.467-3.324c-0.259-1.996-0.819-3.987-1.715-5.909C74.198,6.128,66.975,1.847,59.434,1.847
	c-2.834,0-5.713,0.604-8.449,1.881c-2.589,1.207-4.794,2.9-6.567,4.915C39.43,9.92,33.72,12.536,31.376,13.607
	c-3.51,1.604-5.757,5.025-6.534,9.186c-0.706,3.783-0.2,8.175,1.727,12.392c3.207,7.017,9.346,11.421,15.092,11.421
	c1.504,0,2.981-0.301,4.372-0.937c2.391-1.092,4.199-3.029,5.357-5.465c2.529,1.111,5.283,1.701,8.08,1.701
	c0.452,0,0.905-0.021,1.359-0.052c2.386-0.164,4.781-0.754,7.079-1.826c2.728-1.271,5.026-3.081,6.846-5.239
	c1.007,0.174,2.04,0.266,3.091,0.266c1.047,0,2.109-0.091,3.182-0.279C90.414,33.118,96.787,24.6,95.232,15.786z M63.044,26.727
	c-1.47,0.259-2.87-0.722-3.128-2.191c-0.021-0.114-0.021-0.227-0.025-0.34c-0.146-0.117-0.287-0.24-0.416-0.375
	c-0.209-0.221-0.395-0.468-0.516-0.75c-0.123-0.275-0.164-0.612-0.035-0.855c0.026,0.273,0.2,0.457,0.389,0.585
	c0.192,0.129,0.414,0.211,0.642,0.269c0.036,0.009,0.075,0.013,0.112,0.021c0.332-0.849,1.076-1.514,2.039-1.684
	c1.471-0.259,2.871,0.722,3.129,2.19C65.494,25.065,64.514,26.468,63.044,26.727z"/>
<path fill="#FFFFFF" d="M28.441,79.271c1.309-7.426,6.955-12.635,12.613-11.638c-7.425-1.309-14.505,3.648-15.813,11.072
	c-1.31,7.424,3.647,14.504,11.071,15.813C30.656,93.521,27.133,86.695,28.441,79.271z"/>
<path fill="#FFFFFF" d="M41.055,67.635c5.656,0.998,9.18,7.824,7.871,15.248c-1.31,7.426-6.955,12.635-12.613,11.637
	c7.425,1.311,14.503-3.646,15.813-11.07C53.436,76.023,48.479,68.943,41.055,67.635z"/>
<path fill="#FFFFFF" d="M45.725,82.318c1.309-7.424-0.782-13.998-4.67-14.685c1.59,0.281,1.818,6.526,0.51,13.951
	c-1.31,7.424-3.66,13.215-5.252,12.935C40.202,95.205,44.416,89.743,45.725,82.318z"/>
<path fill="#FFFFFF" d="M35.803,80.568c1.309-7.424,3.66-13.215,5.252-12.935c-3.891-0.686-8.104,4.777-9.412,12.201
	s0.781,13.998,4.67,14.685C34.723,94.239,34.494,87.994,35.803,80.568z"/>
</svg>
