<?xml version="1.0" encoding="utf-8"?>
<!-- Generator: Adobe Illustrator 15.0.2, SVG Export Plug-In . SVG Version: 6.00 Build 0)  -->
<!DOCTYPE svg PUBLIC "-//W3C//DTD SVG 1.1//EN" "http://www.w3.org/Graphics/SVG/1.1/DTD/svg11.dtd">
<svg version="1.1" id="Layer_1" xmlns="http://www.w3.org/2000/svg" xmlns:xlink="http://www.w3.org/1999/xlink" x="0px" y="0px"
	 width="100px" height="100px" viewBox="0 0 100 100" enable-background="new 0 0 100 100" xml:space="preserve">
<path fill="#FFFFFF" d="M45.627,33.88l26.859,10.268L52.15,62.971c-0.666,0.616-1.043,1.479-1.043,2.387v11.471H40.26
	c-1.795,0-3.251,1.455-3.251,3.25v6.094h34.771v-6.094c0-1.795-1.455-3.25-3.252-3.25h-10.92V66.775L80.74,45.364
	c0.826-0.764,1.197-1.898,0.984-3.002c-0.213-1.103-0.981-2.019-2.031-2.419L47.907,27.792c-0.19-0.562-0.495-1.094-0.935-1.549
	l3.871-5.472c0.749-0.751,0.749-1.966,0-2.717l-3.664-3.663c-0.751-0.75-1.967-0.75-2.717,0l-5.473,3.871
	c-1.617-1.565-4.195-1.556-5.792,0.043l-14.98,10.596l18.117,18.117L45.627,33.88z"/>
</svg>
