<?xml version="1.0" encoding="utf-8"?>
<!-- Generator: Adobe Illustrator 15.0.2, SVG Export Plug-In . SVG Version: 6.00 Build 0)  -->
<!DOCTYPE svg PUBLIC "-//W3C//DTD SVG 1.1//EN" "http://www.w3.org/Graphics/SVG/1.1/DTD/svg11.dtd">
<svg version="1.1" id="Layer_1" xmlns="http://www.w3.org/2000/svg" xmlns:xlink="http://www.w3.org/1999/xlink" x="0px" y="0px"
	 width="100px" height="100px" viewBox="0 0 100 100" enable-background="new 0 0 100 100" xml:space="preserve">
<path fill="#FFFFFF" d="M62.188,70.625c0-6.323,2.678-11.23,5.511-16.426c2.823-5.173,5.739-10.521,5.739-17.324
	c0-12.924-10.514-23.438-23.438-23.438S26.562,23.951,26.562,36.875c0,6.802,2.917,12.151,5.74,17.324
	c2.833,5.195,5.51,10.104,5.51,16.426c0,0.518,0.419,0.938,0.938,0.938h22.5C61.768,71.562,62.188,71.143,62.188,70.625z
	 M33.947,53.301c-2.833-5.196-5.51-10.104-5.51-16.426c0-11.889,9.673-21.562,21.562-21.562c11.89,0,21.562,9.673,21.562,21.562
	c0,6.323-2.677,11.23-5.51,16.426c-2.141,3.922-4.312,7.956-5.25,12.637H39.197C38.259,61.257,36.088,57.225,33.947,53.301z
	 M39.669,69.688c-0.025-0.641-0.093-1.26-0.168-1.875h20.998c-0.075,0.615-0.144,1.234-0.168,1.875H39.669z"/>
<path fill="#FFFFFF" d="M59.375,73.438h-18.75c-0.518,0-0.938,0.42-0.938,0.938s0.419,0.938,0.938,0.938h18.75
	c0.518,0,0.938-0.42,0.938-0.938S59.893,73.438,59.375,73.438z"/>
<path fill="#FFFFFF" d="M60.312,78.125c0-0.518-0.42-0.938-0.938-0.938h-18.75c-0.518,0-0.938,0.418-0.938,0.938
	s0.419,0.938,0.938,0.938h18.75C59.893,79.062,60.312,78.643,60.312,78.125z"/>
<path fill="#FFFFFF" d="M42.5,80.879c-0.518,0-0.938,0.419-0.938,0.938c0,4.746,6.172,4.746,8.496,4.746
	c2.324,0,8.497,0,8.497-4.746c0-0.518-0.42-0.938-0.938-0.938H42.5z M50.059,84.688c-4.534,0-6.021-0.877-6.456-1.934h12.913
	C56.079,83.811,54.592,84.688,50.059,84.688z"/>
<ellipse fill="#FFFFFF" cx="40.625" cy="35.938" rx="1.875" ry="2.812"/>
<ellipse fill="#FFFFFF" cx="59.375" cy="35.938" rx="1.875" ry="2.812"/>
<path fill="#FFFFFF" d="M50,50c9.133,0,11.102-6.713,11.182-6.998c0.156-0.564,0.041-1.17-0.314-1.637
	c-0.354-0.465-0.906-0.74-1.492-0.74h-18.75c-0.586,0-1.137,0.274-1.492,0.74c-0.354,0.467-0.471,1.073-0.313,1.637
	C38.898,43.287,40.869,50,50,50z"/>
</svg>
