<svg xmlns="http://www.w3.org/2000/svg" xmlns:xlink="http://www.w3.org/1999/xlink" version="1.1" x="0px" y="0px" width="100px" height="100px" viewBox="0 0 100 100" enable-background="new 0 0 100 100" xml:space="preserve">
<g id="Captions">
</g>
<g id="Your_Icon">
	<g>
		<path d="M66.357,94.06c-0.228,0-0.446,0.034-0.659,0.084c-0.546,0.131-1.029,0.415-1.402,0.811    c-0.482,0.51-0.783,1.193-0.783,1.951c0,1.57,1.273,2.846,2.845,2.846c1.572,0,2.846-1.275,2.846-2.846    C69.203,95.333,67.93,94.06,66.357,94.06z"/>
		<path d="M66.488,63.251L59.729,1.96c0-0.741-4.266-1.341-9.528-1.341c-5.264,0-9.529,0.6-9.529,1.341l-6.959,61.291    c0,1.228,7.288,2.228,15.288,2.287v1.305c-1.612,0.441-2.803,1.902-2.803,3.654c0,0.816,0.262,1.568,0.7,2.188L34.613,94.132    c-0.185-0.039-0.372-0.072-0.568-0.072c-1.572,0-2.846,1.273-2.846,2.846c0,1.57,1.273,2.846,2.846,2.846    c1.571,0,2.845-1.275,2.845-2.846c0-0.758-0.3-1.441-0.783-1.951c-0.01-0.011-0.022-0.019-0.032-0.029L48.112,73.78    c0.277,0.16,0.573,0.284,0.888,0.371V93v1l0.058,0.001c-1.097,0.39-1.886,1.425-1.886,2.655c0,1.562,1.267,2.828,2.829,2.828    c1.562,0,2.828-1.266,2.828-2.828c0-1.207-0.759-2.229-1.822-2.636C51.004,94.011,51.002,94,51,94v-1V74.151    c0.365-0.101,0.711-0.247,1.023-0.444l12.27,21.247c0.373-0.396,0.859-0.68,1.405-0.811L53.21,72.52    c0.371-0.587,0.594-1.277,0.594-2.022c0-1.752-1.191-3.213-2.804-3.654v-1.305C60,65.479,66.488,64.479,66.488,63.251z"/>
	</g>
</g>
</svg>