<?xml version="1.0" encoding="utf-8"?>
<!-- Generator: Adobe Illustrator 15.0.2, SVG Export Plug-In . SVG Version: 6.00 Build 0)  -->
<!DOCTYPE svg PUBLIC "-//W3C//DTD SVG 1.1//EN" "http://www.w3.org/Graphics/SVG/1.1/DTD/svg11.dtd">
<svg version="1.1" id="Layer_1" xmlns="http://www.w3.org/2000/svg" xmlns:xlink="http://www.w3.org/1999/xlink" x="0px" y="0px"
	 width="100px" height="100px" viewBox="0 0 100 100" enable-background="new 0 0 100 100" xml:space="preserve">
<g>
	<path fill="#FFFFFF" d="M57.791,68.73c0,1.972,1.598,3.57,3.568,3.57c1.972,0,3.568-1.6,3.568-3.57c0-1.97-1.598-3.569-3.568-3.569
		S57.791,66.761,57.791,68.73L57.791,68.73z M57.166,87.874l4.329,7.808c0.112,0.207,0.372,0.28,0.58,0.166l0.1-0.056
		c0.205-0.115,0.281-0.373,0.166-0.58l-4.325-7.807c-0.115-0.207-0.377-0.283-0.584-0.169l-0.099,0.056
		C57.126,87.407,57.052,87.667,57.166,87.874L57.166,87.874z M60.012,86.298l4.327,7.808c0.115,0.205,0.374,0.278,0.58,0.166
		l0.101-0.056c0.205-0.112,0.28-0.375,0.166-0.582l-4.328-7.807c-0.113-0.205-0.373-0.281-0.58-0.166l-0.101,0.055
		C59.971,85.829,59.896,86.091,60.012,86.298L60.012,86.298z M62.855,84.72l4.328,7.81c0.113,0.205,0.375,0.281,0.58,0.166
		l0.098-0.055c0.209-0.115,0.281-0.375,0.168-0.58l-4.326-7.81c-0.115-0.207-0.376-0.281-0.581-0.166l-0.101,0.056
		C62.814,84.255,62.741,84.514,62.855,84.72L62.855,84.72z M65.7,83.145l4.327,7.807c0.115,0.207,0.375,0.281,0.58,0.166l0.1-0.055
		c0.208-0.113,0.281-0.373,0.167-0.58l-4.326-7.81c-0.114-0.205-0.375-0.278-0.581-0.166l-0.101,0.056
		C65.659,82.677,65.586,82.938,65.7,83.145L65.7,83.145z M68.546,81.566l4.326,7.808c0.114,0.207,0.374,0.281,0.58,0.166l0.1-0.056
		c0.207-0.112,0.281-0.373,0.169-0.579l-4.328-7.808c-0.113-0.207-0.375-0.283-0.582-0.168l-0.1,0.055
		C68.504,81.102,68.432,81.359,68.546,81.566L68.546,81.566z M71.389,79.991l4.328,7.807c0.113,0.205,0.374,0.279,0.582,0.166
		l0.098-0.055c0.207-0.115,0.283-0.375,0.168-0.582l-4.328-7.808c-0.113-0.207-0.375-0.28-0.58-0.166l-0.1,0.056
		C71.352,79.523,71.273,79.784,71.389,79.991L71.389,79.991z M67.629,64.409c0,1.971,1.6,3.567,3.569,3.567
		c1.973,0,3.569-1.598,3.569-3.567c0-1.974-1.598-3.57-3.569-3.57C69.229,60.839,67.629,62.438,67.629,64.409L67.629,64.409z
		 M38.984,83.12c0.206,0.44,0.741,0.629,1.196,0.416l5.068-2.363c0.453-0.211,0.656-0.741,0.45-1.184
		c-0.208-0.441-0.743-0.63-1.196-0.416l-5.068,2.36C38.979,82.146,38.778,82.68,38.984,83.12L38.984,83.12z M48.892,83.12
		c0.206,0.44,0.742,0.629,1.196,0.416l5.068-2.363c0.453-0.211,0.654-0.741,0.449-1.184c-0.207-0.441-0.742-0.63-1.198-0.416
		l-5.066,2.36C48.886,82.146,48.687,82.68,48.892,83.12L48.892,83.12z M30.422,61.062v3.78h-3.783c-0.501,0-0.907,0.408-0.907,0.908
		v3.447c0,0.502,0.406,0.907,0.907,0.907h3.783v3.781c0,0.502,0.407,0.908,0.909,0.908h3.445c0.502,0,0.908-0.406,0.908-0.908
		v-3.781h3.78c0.501,0,0.909-0.405,0.909-0.907v-3.447c0-0.5-0.408-0.908-0.909-0.908h-3.78v-3.78c0-0.502-0.406-0.908-0.908-0.908
		h-3.445C30.829,60.152,30.422,60.561,30.422,61.062L30.422,61.062z M72.688,9.271H27.081c-1.003,0-1.814,0.812-1.814,1.815v34.531
		c0,1.003,0.812,1.816,1.814,1.816h38.344c5.017,0,9.081-4.064,9.081-9.079V11.087C74.506,10.084,73.691,9.271,72.688,9.271
		L72.688,9.271z M76.838,0.3c1.854,0,3.355,1.503,3.355,3.357v82.297c0,7.371-5.975,13.346-13.344,13.346H23.163
		c-1.855,0-3.357-1.504-3.357-3.356V3.657c0-1.854,1.502-3.357,3.357-3.357H76.838L76.838,0.3z M27.886,23.766
		c0-0.513,0.417-0.929,0.93-0.929c0.514,0,0.928,0.416,0.928,0.929c0,0.513-0.414,0.929-0.928,0.929
		C28.303,24.694,27.886,24.278,27.886,23.766L27.886,23.766z M34.152,14.021h31.606v28.258H34.152V14.021L34.152,14.021z"/>
</g>
</svg>
