<?xml version="1.0" encoding="utf-8"?>
<!-- Generator: Adobe Illustrator 15.0.2, SVG Export Plug-In . SVG Version: 6.00 Build 0)  -->
<!DOCTYPE svg PUBLIC "-//W3C//DTD SVG 1.1//EN" "http://www.w3.org/Graphics/SVG/1.1/DTD/svg11.dtd">
<svg version="1.1" id="Layer_1" xmlns="http://www.w3.org/2000/svg" xmlns:xlink="http://www.w3.org/1999/xlink" x="0px" y="0px"
	 width="100px" height="76.857px" viewBox="0 0 100 76.857" enable-background="new 0 0 100 76.857" xml:space="preserve">
<path fill="#FFFFFF" d="M99.945,15.482c-0.01-0.036-0.025-0.068-0.038-0.104c-0.029-0.076-0.063-0.148-0.106-0.218
	c-0.021-0.036-0.044-0.068-0.068-0.102c-0.049-0.064-0.104-0.124-0.166-0.179c-0.027-0.025-0.053-0.051-0.082-0.074
	c-0.016-0.011-0.024-0.023-0.039-0.034c-0.09-0.062-0.186-0.11-0.284-0.146L81.549,7.884V6.763c0-0.273-0.029-0.541-0.091-0.8
	c-0.117-0.518-0.351-1.001-0.683-1.455c-0.164-0.227-0.354-0.444-0.565-0.654c-0.153-0.149-0.315-0.295-0.489-0.437
	c-0.068-0.055-0.142-0.105-0.211-0.157c-0.111-0.085-0.222-0.17-0.341-0.25c-0.096-0.066-0.196-0.128-0.299-0.191
	c-0.101-0.063-0.2-0.127-0.306-0.188c-0.121-0.07-0.246-0.138-0.371-0.205c-0.092-0.049-0.184-0.098-0.277-0.146
	c-0.146-0.072-0.294-0.143-0.445-0.212c-0.08-0.036-0.16-0.073-0.24-0.108c-0.172-0.074-0.346-0.147-0.521-0.217
	c-0.066-0.026-0.132-0.052-0.197-0.077c-0.197-0.074-0.396-0.148-0.601-0.219c-0.046-0.016-0.093-0.029-0.14-0.046
	c-0.228-0.074-0.453-0.148-0.689-0.219c-1.443-0.43-3.039-0.745-4.693-0.939c-0.664-0.078-1.337-0.14-2.014-0.179
	c-0.002,0-0.002,0-0.004,0C67.695,0.02,67.018,0,66.343,0h-0.002c-6.448,0-13.256,1.814-14.856,5.211
	c-0.228,0.484-0.35,1.003-0.35,1.552v0.795l-12.988,4.895c0.105,0.013,0.206,0.029,0.311,0.044
	c-0.146-0.021-0.291-0.042-0.438-0.061c-0.664-0.078-1.337-0.139-2.014-0.178c-0.002,0-0.002,0-0.003,0
	c-0.675-0.04-1.354-0.061-2.029-0.061h-0.001c-6.449,0-13.256,1.814-14.856,5.211c-0.227,0.484-0.35,1.003-0.35,1.552v0.794
	l-17.93,6.757l0,0l-0.003,0.001c-0.004,0.002-0.007,0.004-0.011,0.006c-0.092,0.036-0.181,0.081-0.265,0.139
	c-0.012,0.009-0.021,0.021-0.034,0.029C0.49,26.71,0.462,26.74,0.431,26.768c-0.057,0.051-0.109,0.105-0.155,0.166
	c-0.029,0.037-0.054,0.073-0.078,0.112c-0.039,0.063-0.07,0.131-0.098,0.2c-0.016,0.041-0.035,0.079-0.046,0.122
	c-0.028,0.099-0.044,0.201-0.048,0.307C0.005,27.688,0,27.701,0,27.715c0,0.001,0.001,0.003,0.001,0.006v35.34
	c0,0.533,0.33,1.013,0.828,1.203l32.682,12.51c0.012,0.004,0.024,0.003,0.036,0.007c0.137,0.049,0.28,0.078,0.425,0.078
	c0.144,0,0.284-0.028,0.42-0.075c0.012-0.005,0.023-0.002,0.035-0.007l64.74-24.396c0.502-0.189,0.834-0.67,0.834-1.206V15.833
	C100,15.712,99.979,15.595,99.945,15.482z M53.77,6.435c0.033-0.1,0.086-0.202,0.146-0.304c0.023-0.036,0.055-0.071,0.079-0.106
	c0.048-0.067,0.096-0.135,0.155-0.204c0.037-0.044,0.086-0.089,0.129-0.133c0.059-0.06,0.117-0.119,0.187-0.178
	c0.058-0.05,0.118-0.1,0.183-0.149c0.065-0.053,0.136-0.104,0.209-0.158c0.076-0.056,0.158-0.11,0.242-0.165
	c0.069-0.045,0.143-0.09,0.217-0.137c0.101-0.061,0.203-0.12,0.312-0.18c0.064-0.037,0.137-0.072,0.206-0.108
	c0.13-0.066,0.259-0.132,0.399-0.196c0.048-0.023,0.102-0.045,0.15-0.067c1.396-0.628,3.299-1.169,5.612-1.48
	c0.007-0.002,0.017-0.002,0.022-0.003c0.332-0.045,0.672-0.084,1.021-0.118c0.015-0.002,0.026-0.003,0.041-0.004
	c0.351-0.035,0.707-0.064,1.071-0.087c0.002,0,0.002,0,0.005,0c0.7-0.046,1.426-0.073,2.183-0.073c0.796,0,1.562,0.025,2.297,0.076
	c1.23,0.078,2.363,0.227,3.4,0.421c0.07,0.014,0.145,0.026,0.215,0.041c0.821,0.16,1.576,0.35,2.262,0.561
	c0.069,0.021,0.139,0.043,0.207,0.064c0.331,0.106,0.65,0.217,0.947,0.333c0.005,0.001,0.009,0.003,0.014,0.005
	c0.286,0.111,0.551,0.229,0.805,0.347c0.06,0.029,0.121,0.06,0.183,0.088c0.245,0.121,0.478,0.243,0.687,0.368
	c0.006,0.004,0.013,0.008,0.02,0.012c0.2,0.121,0.378,0.244,0.542,0.367C77.959,5.298,78,5.33,78.043,5.363
	c0.158,0.128,0.305,0.255,0.423,0.381c0.332,0.353,0.505,0.699,0.505,1.02c0,1.706-4.919,4.185-12.628,4.185
	c-0.569,0-1.118-0.019-1.657-0.044c-0.16-0.007-0.317-0.019-0.476-0.027c-0.386-0.024-0.765-0.054-1.132-0.09
	c-0.152-0.016-0.305-0.029-0.453-0.046c-0.432-0.05-0.854-0.106-1.258-0.17c-0.055-0.009-0.111-0.015-0.165-0.023
	c-0.476-0.078-0.929-0.167-1.365-0.264c-0.063-0.014-0.123-0.029-0.185-0.043c-0.375-0.087-0.732-0.179-1.073-0.275
	c-0.067-0.021-0.136-0.039-0.201-0.059c-1.827-0.541-3.17-1.228-3.933-1.911c-0.029-0.027-0.059-0.053-0.086-0.079
	c-0.066-0.065-0.135-0.129-0.192-0.194c-0.076-0.085-0.146-0.171-0.202-0.256c-0.027-0.037-0.045-0.075-0.066-0.111
	c-0.039-0.068-0.073-0.138-0.101-0.206c-0.013-0.031-0.024-0.063-0.036-0.096c-0.027-0.098-0.05-0.194-0.05-0.288
	C53.712,6.656,53.73,6.547,53.77,6.435z M78.971,10.638v4.414c0,1.705-4.916,4.183-12.625,4.183v-5.709
	C71.111,13.524,76.061,12.527,78.971,10.638z M39.562,12.661c-0.07-0.013-0.139-0.026-0.209-0.038
	C39.423,12.635,39.492,12.649,39.562,12.661z M21.399,18.633c0.034-0.099,0.085-0.201,0.147-0.304
	c0.023-0.035,0.054-0.071,0.078-0.106c0.048-0.066,0.096-0.135,0.157-0.203c0.037-0.044,0.085-0.089,0.127-0.133
	c0.059-0.06,0.119-0.119,0.187-0.179c0.057-0.05,0.119-0.1,0.183-0.149c0.066-0.054,0.135-0.105,0.208-0.159
	c0.076-0.055,0.158-0.109,0.243-0.165c0.069-0.045,0.142-0.091,0.217-0.136c0.1-0.061,0.203-0.121,0.312-0.181
	c0.066-0.036,0.137-0.072,0.206-0.108c0.13-0.065,0.259-0.132,0.4-0.197c0.048-0.022,0.101-0.045,0.151-0.067
	c1.396-0.628,3.298-1.168,5.613-1.481c0.007-0.002,0.016-0.003,0.023-0.004c0.332-0.044,0.671-0.084,1.02-0.118
	c0.014-0.001,0.027-0.002,0.041-0.004c0.35-0.035,0.707-0.063,1.073-0.087c0.002,0,0.002,0,0.003,0
	c0.702-0.045,1.426-0.074,2.183-0.074c0.795,0,1.561,0.027,2.296,0.077c1.229,0.083,2.362,0.23,3.4,0.424
	c0.071,0.014,0.144,0.027,0.215,0.041c0.82,0.16,1.575,0.351,2.261,0.561c0.069,0.021,0.138,0.043,0.206,0.064
	c0.332,0.106,0.652,0.218,0.948,0.332c0.005,0.002,0.009,0.004,0.013,0.006c0.288,0.111,0.552,0.229,0.804,0.347
	c0.061,0.029,0.123,0.059,0.183,0.088c0.245,0.121,0.478,0.244,0.686,0.368c0.007,0.005,0.013,0.008,0.02,0.013
	c0.201,0.121,0.378,0.243,0.542,0.367c0.044,0.033,0.085,0.064,0.128,0.098c0.158,0.127,0.304,0.254,0.422,0.38
	c0.333,0.354,0.505,0.7,0.505,1.021c0,1.706-4.918,4.184-12.627,4.184c-0.57,0-1.119-0.018-1.657-0.043
	c-0.162-0.007-0.318-0.019-0.476-0.027c-0.386-0.024-0.764-0.055-1.132-0.091c-0.152-0.015-0.304-0.028-0.453-0.046
	c-0.432-0.049-0.853-0.104-1.258-0.169c-0.055-0.009-0.112-0.015-0.165-0.023c-0.476-0.078-0.929-0.167-1.366-0.265
	c-0.064-0.014-0.123-0.028-0.185-0.043c-0.375-0.086-0.731-0.179-1.073-0.274c-0.067-0.021-0.135-0.039-0.201-0.06
	c-1.828-0.541-3.17-1.228-3.933-1.911c-0.03-0.026-0.059-0.053-0.085-0.078c-0.067-0.065-0.135-0.131-0.194-0.195
	c-0.076-0.085-0.146-0.171-0.202-0.255c-0.027-0.038-0.044-0.075-0.066-0.111c-0.039-0.069-0.075-0.138-0.101-0.206
	c-0.013-0.032-0.025-0.063-0.036-0.096c-0.028-0.099-0.05-0.194-0.05-0.288C21.343,18.854,21.362,18.745,21.399,18.633z
	 M46.601,22.835v4.414c0,1.705-4.917,4.183-12.625,4.183v-5.709C38.742,25.722,43.691,24.726,46.601,22.835z M33.972,34.011
	c7.373,0,15.208-2.37,15.208-6.762V18.96c0-0.274-0.03-0.541-0.09-0.8c-0.117-0.518-0.35-1.002-0.682-1.455
	c-0.165-0.228-0.355-0.444-0.566-0.655c-0.153-0.15-0.316-0.295-0.49-0.438c-0.068-0.054-0.141-0.104-0.21-0.156
	c-0.112-0.085-0.222-0.169-0.341-0.25c-0.096-0.065-0.197-0.127-0.298-0.191c-0.1-0.063-0.201-0.127-0.306-0.188
	c-0.121-0.07-0.245-0.139-0.371-0.205c-0.092-0.049-0.183-0.099-0.277-0.146c-0.146-0.073-0.294-0.143-0.446-0.212
	c-0.08-0.038-0.16-0.074-0.241-0.109c-0.171-0.074-0.345-0.146-0.521-0.218c-0.066-0.024-0.131-0.05-0.197-0.076
	c-0.197-0.074-0.396-0.147-0.6-0.218c-0.046-0.016-0.093-0.03-0.139-0.046c-0.175-0.059-0.354-0.114-0.533-0.169l8.265-3.114v0.002
	v4.737c0,4.392,7.836,6.762,15.206,6.762c7.373,0,15.208-2.371,15.208-6.762v-4.408l13.532,5.181l-33.886,12.77l-27.22,10.257
	L4.919,27.728l13.847-5.218v0.002v4.737C18.766,31.641,26.601,34.011,33.972,34.011z M97.423,50.283L35.26,73.707V41.12
	l22.205-8.366l39.958-15.059V50.283z"/>
</svg>
