<?xml version="1.0" encoding="utf-8"?>
<!-- Generator: Adobe Illustrator 15.0.2, SVG Export Plug-In . SVG Version: 6.00 Build 0)  -->
<!DOCTYPE svg PUBLIC "-//W3C//DTD SVG 1.1//EN" "http://www.w3.org/Graphics/SVG/1.1/DTD/svg11.dtd">
<svg version="1.1" id="Your_Icon" xmlns="http://www.w3.org/2000/svg" xmlns:xlink="http://www.w3.org/1999/xlink" x="0px" y="0px"
	 width="100px" height="100px" viewBox="0 0 100 100" enable-background="new 0 0 100 100" xml:space="preserve">
<path fill="#FFFFFF" d="M61.887,32.413C61.525,29.097,59.25,27,56.645,27H53V5h-5v22h-3.59c-2.608,0-4.259,2.097-4.621,5.413
	L9.455,60.186c-1.311,1.006-2.172,2.662-2.172,4.588c0,2.974,2.053,5.677,4.643,5.855C12.153,70.686,12.399,71,12.669,71h17.207
	c3.938,7,11.707,12.425,20.649,12.425S67.236,78,71.173,71h17.212C91.826,71,94,64.793,94,61.499v-1.071L61.887,32.413z
	 M50.523,78.664C44.407,78.664,38.987,74,35.587,71h29.875C62.062,74,56.643,78.664,50.523,78.664z"/>
<path fill="#FFFFFF" d="M52,96.271C52,97.114,51.427,98,50.584,98h-0.151C49.591,98,49,97.114,49,96.271v-6.555
	C49,88.873,49.591,88,50.434,88h0.151C51.427,88,52,88.873,52,89.717V96.271z"/>
<path fill="#FFFFFF" d="M77.826,87.502c0.54,0.646,0.453,1.609-0.194,2.148l0,0c-0.647,0.539-1.608,0.453-2.149-0.193l-4.125-4.949
	c-0.539-0.646-0.45-1.609,0.197-2.146l0,0c0.646-0.541,1.608-0.453,2.147,0.193L77.826,87.502z"/>
<path fill="#FFFFFF" d="M23.559,87.502c-0.54,0.646-0.453,1.609,0.195,2.148l0,0c0.647,0.539,1.609,0.453,2.148-0.193l4.125-4.949
	c0.54-0.646,0.453-1.609-0.195-2.146l0,0c-0.648-0.541-1.609-0.453-2.149,0.193L23.559,87.502z"/>
</svg>
