<?xml version="1.0" encoding="utf-8"?>
<!-- Generator: Adobe Illustrator 15.0.2, SVG Export Plug-In . SVG Version: 6.00 Build 0)  -->
<!DOCTYPE svg PUBLIC "-//W3C//DTD SVG 1.1//EN" "http://www.w3.org/Graphics/SVG/1.1/DTD/svg11.dtd">
<svg version="1.1" id="Layer_1" xmlns="http://www.w3.org/2000/svg" xmlns:xlink="http://www.w3.org/1999/xlink" x="0px" y="0px"
	 width="100px" height="100px" viewBox="0 0 100 100" enable-background="new 0 0 100 100" xml:space="preserve">
<path fill="#FFFFFF" d="M62.188,70.625c0-6.323,2.678-11.23,5.511-16.426c2.823-5.173,5.739-10.521,5.739-17.324
	c0-12.924-10.514-23.438-23.438-23.438S26.562,23.951,26.562,36.875c0,6.802,2.917,12.151,5.74,17.324
	c2.833,5.195,5.51,10.104,5.51,16.426c0,0.518,0.419,0.938,0.938,0.938h22.5C61.768,71.562,62.188,71.143,62.188,70.625z
	 M33.947,53.301c-2.833-5.196-5.51-10.104-5.51-16.426c0-11.889,9.673-21.562,21.562-21.562c11.89,0,21.562,9.673,21.562,21.562
	c0,6.323-2.677,11.23-5.51,16.426c-2.141,3.922-4.312,7.956-5.25,12.637H39.197C38.259,61.257,36.088,57.225,33.947,53.301z
	 M39.669,69.688c-0.025-0.641-0.093-1.26-0.168-1.875h20.998c-0.075,0.615-0.144,1.234-0.168,1.875H39.669z"/>
<path fill="#FFFFFF" d="M59.375,73.438h-18.75c-0.518,0-0.938,0.42-0.938,0.938s0.419,0.938,0.938,0.938h18.75
	c0.518,0,0.938-0.42,0.938-0.938S59.893,73.438,59.375,73.438z"/>
<path fill="#FFFFFF" d="M60.312,78.125c0-0.518-0.42-0.938-0.938-0.938h-18.75c-0.518,0-0.938,0.418-0.938,0.938
	s0.419,0.938,0.938,0.938h18.75C59.893,79.062,60.312,78.643,60.312,78.125z"/>
<path fill="#FFFFFF" d="M42.5,80.879c-0.518,0-0.938,0.419-0.938,0.938c0,4.746,6.172,4.746,8.496,4.746
	c2.324,0,8.497,0,8.497-4.746c0-0.518-0.42-0.938-0.938-0.938H42.5z M50.059,84.688c-4.534,0-6.021-0.877-6.456-1.934h12.913
	C56.079,83.811,54.592,84.688,50.059,84.688z"/>
<path fill="#FFFFFF" d="M50,49.062c3.618,0,6.562-2.944,6.562-6.562c0-0.518-0.42-0.938-0.938-0.938s-0.938,0.419-0.938,0.938
	c0,2.585-2.102,4.688-4.688,4.688S45.31,45.086,45.31,42.5c0-0.518-0.419-0.938-0.938-0.938s-0.938,0.419-0.938,0.938
	C43.438,46.118,46.382,49.062,50,49.062z"/>
<path fill="#FFFFFF" d="M42.5,37.812c0.518,0,0.938-0.419,0.938-0.938s-0.419-0.938-0.938-0.938h-3.75
	c-0.518,0-0.938,0.419-0.938,0.938s0.419,0.938,0.938,0.938H42.5z"/>
<path fill="#FFFFFF" d="M57.5,37.812h3.75c0.518,0,0.938-0.419,0.938-0.938s-0.418-0.938-0.938-0.938H57.5
	c-0.518,0-0.938,0.419-0.938,0.938S56.982,37.812,57.5,37.812z"/>
<polygon fill="#FFFFFF" points="78.33,9.797 68.787,9.761 68.779,12.489 73.438,12.505 68.762,16.482 68.754,19.302 78.295,19.339 
	78.305,16.611 73.535,16.592 78.318,12.524 "/>
<polygon fill="#FFFFFF" points="87.844,7.415 80.712,7.386 80.707,9.426 84.189,9.437 80.695,12.41 80.688,14.516 87.818,14.543 
	87.826,12.505 84.262,12.491 87.833,9.451 "/>
</svg>
