<?xml version="1.0" encoding="utf-8"?>
<!-- Generator: Adobe Illustrator 15.0.2, SVG Export Plug-In . SVG Version: 6.00 Build 0)  -->
<!DOCTYPE svg PUBLIC "-//W3C//DTD SVG 1.1//EN" "http://www.w3.org/Graphics/SVG/1.1/DTD/svg11.dtd">
<svg version="1.1" id="Layer_1" xmlns="http://www.w3.org/2000/svg" xmlns:xlink="http://www.w3.org/1999/xlink" x="0px" y="0px"
	 width="100px" height="45.959px" viewBox="0 0 100 45.959" enable-background="new 0 0 100 45.959" xml:space="preserve">
<path fill="#FFFFFF" d="M33.092,30.931c2.083,0,4.297-0.67,4.297-1.91v-2.342c0-0.078-0.008-0.154-0.025-0.227
	c-0.033-0.146-0.099-0.283-0.193-0.412c-0.046-0.064-0.1-0.125-0.16-0.185c-0.043-0.042-0.09-0.083-0.139-0.123
	c-0.019-0.016-0.04-0.03-0.059-0.045c-0.031-0.024-0.062-0.048-0.097-0.071c-0.027-0.018-0.055-0.035-0.084-0.053
	c-0.028-0.019-0.057-0.037-0.087-0.054c-0.033-0.02-0.069-0.04-0.105-0.058c-0.026-0.015-0.052-0.027-0.078-0.042
	c-0.041-0.021-0.083-0.04-0.126-0.06c-0.022-0.012-0.045-0.021-0.068-0.031c-0.048-0.021-0.097-0.041-0.147-0.062
	c-0.019-0.008-0.037-0.015-0.056-0.021c-0.056-0.021-0.112-0.043-0.169-0.062c-0.013-0.004-0.026-0.009-0.04-0.014
	c-0.063-0.021-0.128-0.042-0.195-0.062c-0.408-0.12-0.859-0.21-1.326-0.265c-0.188-0.021-0.378-0.039-0.57-0.05c0,0,0,0,0,0
	c-0.191-0.012-0.383-0.018-0.573-0.018l0,0l0,0c-1.822,0-3.746,0.514-4.197,1.473c-0.064,0.138-0.099,0.283-0.099,0.439v0.225v0.779
	v1.338C28.795,30.261,31.009,30.931,33.092,30.931z M36.66,29.021c0,0.48-1.389,1.182-3.567,1.182v-1.613
	c1.347-0.001,2.745-0.282,3.567-0.816V29.021z M29.54,26.586c0.01-0.028,0.024-0.058,0.042-0.086
	c0.006-0.011,0.015-0.021,0.022-0.03c0.014-0.019,0.028-0.038,0.044-0.057c0.011-0.014,0.024-0.025,0.037-0.039
	c0.016-0.016,0.033-0.033,0.052-0.05c0.016-0.015,0.034-0.028,0.051-0.042c0.019-0.016,0.039-0.029,0.059-0.045
	c0.021-0.016,0.045-0.031,0.069-0.047c0.019-0.013,0.04-0.025,0.061-0.039c0.028-0.016,0.057-0.033,0.088-0.05
	c0.019-0.011,0.039-0.021,0.059-0.03c0.036-0.019,0.073-0.038,0.112-0.056c0.014-0.007,0.029-0.014,0.043-0.02
	c0.394-0.177,0.932-0.329,1.586-0.418c0.002-0.001,0.005-0.001,0.007-0.001c0.093-0.013,0.189-0.023,0.288-0.033
	c0.004-0.001,0.008-0.001,0.012-0.002c0.1-0.01,0.2-0.018,0.303-0.024c0,0,0,0,0,0c0.199-0.013,0.403-0.021,0.617-0.021
	c0.225,0,0.441,0.008,0.648,0.021c0.347,0.023,0.667,0.066,0.96,0.119c0.02,0.004,0.041,0.009,0.061,0.013
	c0.231,0.046,0.445,0.099,0.638,0.158c0.02,0.006,0.04,0.013,0.059,0.019c0.093,0.029,0.185,0.061,0.268,0.094
	c0.001,0,0.002,0,0.003,0.001c0.082,0.032,0.156,0.065,0.228,0.099c0.017,0.008,0.035,0.017,0.052,0.024
	c0.07,0.034,0.136,0.069,0.194,0.104c0.001,0.001,0.003,0.002,0.005,0.004c0.057,0.034,0.107,0.068,0.153,0.104
	c0.013,0.01,0.024,0.018,0.037,0.027c0.045,0.037,0.086,0.072,0.12,0.108c0.094,0.099,0.143,0.198,0.143,0.288
	c0,0.481-1.39,1.182-3.567,1.182c-0.162,0-0.316-0.005-0.468-0.012c-0.046-0.002-0.09-0.006-0.135-0.008
	c-0.109-0.008-0.216-0.016-0.32-0.025c-0.043-0.005-0.086-0.01-0.127-0.014c-0.123-0.014-0.241-0.03-0.356-0.049
	c-0.016-0.002-0.031-0.003-0.046-0.006c-0.135-0.021-0.262-0.047-0.386-0.075c-0.018-0.003-0.035-0.008-0.052-0.013
	c-0.106-0.024-0.207-0.051-0.303-0.076c-0.02-0.007-0.039-0.013-0.057-0.018c-0.516-0.152-0.896-0.347-1.111-0.539
	c-0.008-0.008-0.016-0.016-0.023-0.022c-0.02-0.018-0.039-0.036-0.055-0.055c-0.021-0.024-0.042-0.048-0.058-0.073
	c-0.007-0.01-0.013-0.021-0.019-0.031c-0.011-0.019-0.021-0.039-0.029-0.057c-0.003-0.01-0.007-0.019-0.01-0.027
	c-0.008-0.027-0.014-0.056-0.014-0.082C29.524,26.647,29.53,26.617,29.54,26.586z"/>
<path fill="#FFFFFF" d="M42.238,27.484c2.083,0,4.297-0.67,4.297-1.91v-2.342c0-0.077-0.009-0.153-0.025-0.226
	c-0.034-0.146-0.1-0.284-0.193-0.411c-0.046-0.064-0.1-0.126-0.16-0.185c-0.043-0.043-0.09-0.083-0.139-0.124
	c-0.019-0.015-0.04-0.029-0.059-0.044c-0.031-0.023-0.062-0.047-0.097-0.071c-0.027-0.019-0.055-0.037-0.084-0.054
	c-0.028-0.018-0.057-0.036-0.086-0.053c-0.034-0.02-0.07-0.039-0.105-0.058c-0.026-0.014-0.052-0.028-0.078-0.042
	c-0.041-0.021-0.083-0.041-0.125-0.06c-0.023-0.01-0.046-0.021-0.069-0.031c-0.048-0.021-0.097-0.042-0.146-0.062
	c-0.019-0.007-0.037-0.015-0.056-0.021c-0.056-0.021-0.112-0.042-0.169-0.062c-0.014-0.004-0.026-0.009-0.04-0.013
	c-0.063-0.021-0.129-0.042-0.195-0.062c-0.408-0.121-0.859-0.21-1.326-0.265c-0.188-0.022-0.378-0.039-0.57-0.05c0,0,0,0,0,0
	c-0.19-0.011-0.383-0.017-0.574-0.017l0,0l0,0c-1.822,0-3.745,0.513-4.198,1.472c-0.064,0.138-0.099,0.283-0.099,0.438v0.225v0.778
	v1.34C37.941,26.813,40.156,27.484,42.238,27.484z M45.807,25.574c0,0.481-1.39,1.183-3.567,1.183v-1.615
	c1.347,0,2.745-0.281,3.567-0.814V25.574z M38.687,23.138c0.01-0.028,0.024-0.056,0.042-0.085c0.006-0.01,0.015-0.02,0.022-0.03
	c0.013-0.019,0.027-0.039,0.043-0.057c0.011-0.013,0.024-0.025,0.037-0.038c0.016-0.017,0.033-0.034,0.052-0.05
	c0.016-0.015,0.034-0.028,0.051-0.042c0.019-0.016,0.038-0.03,0.059-0.046s0.044-0.031,0.068-0.046
	c0.019-0.013,0.041-0.025,0.062-0.039c0.028-0.017,0.057-0.034,0.088-0.051c0.019-0.01,0.039-0.02,0.059-0.03
	c0.037-0.019,0.073-0.038,0.113-0.056c0.014-0.006,0.029-0.013,0.043-0.019c0.394-0.178,0.931-0.33,1.585-0.418
	c0.002,0,0.004,0,0.007,0c0.094-0.013,0.189-0.024,0.288-0.034c0.004,0,0.007,0,0.012-0.001c0.099-0.011,0.2-0.018,0.303-0.025
	c0,0,0,0,0,0c0.199-0.013,0.403-0.021,0.617-0.021c0.225,0,0.441,0.007,0.648,0.021c0.348,0.023,0.667,0.065,0.961,0.12
	c0.02,0.003,0.041,0.007,0.061,0.012c0.232,0.045,0.445,0.099,0.639,0.159c0.019,0.006,0.039,0.012,0.059,0.018
	c0.093,0.03,0.185,0.062,0.268,0.094c0.001,0,0.002,0,0.003,0.001c0.081,0.031,0.156,0.064,0.228,0.098
	c0.017,0.009,0.035,0.016,0.052,0.025c0.069,0.034,0.136,0.069,0.194,0.104c0.001,0.001,0.003,0.002,0.005,0.004
	c0.057,0.034,0.107,0.069,0.153,0.104c0.013,0.01,0.024,0.019,0.036,0.028c0.045,0.035,0.086,0.072,0.12,0.107
	c0.093,0.1,0.143,0.197,0.143,0.288c0,0.482-1.39,1.182-3.568,1.182c-0.161,0-0.316-0.005-0.468-0.012
	c-0.046-0.002-0.09-0.006-0.135-0.009c-0.109-0.007-0.216-0.016-0.32-0.024c-0.043-0.005-0.086-0.009-0.128-0.014
	c-0.122-0.014-0.241-0.029-0.354-0.048c-0.016-0.002-0.032-0.005-0.047-0.007c-0.135-0.021-0.262-0.047-0.386-0.074
	c-0.018-0.005-0.035-0.01-0.053-0.013c-0.106-0.024-0.207-0.051-0.303-0.078c-0.018-0.006-0.038-0.011-0.056-0.017
	c-0.516-0.152-0.896-0.346-1.111-0.539c-0.008-0.009-0.017-0.016-0.024-0.022c-0.019-0.019-0.039-0.037-0.055-0.056
	c-0.021-0.023-0.042-0.047-0.057-0.072c-0.007-0.011-0.013-0.021-0.019-0.031c-0.011-0.019-0.021-0.04-0.029-0.059
	c-0.004-0.009-0.007-0.018-0.01-0.027c-0.008-0.027-0.014-0.055-0.014-0.081C38.67,23.201,38.676,23.17,38.687,23.138z"/>
<path fill="#FFFFFF" d="M51.385,24.037c2.082,0,4.297-0.669,4.297-1.911v-2.341c0-0.078-0.01-0.153-0.025-0.226
	c-0.033-0.146-0.1-0.283-0.193-0.411c-0.046-0.063-0.1-0.125-0.16-0.185c-0.043-0.042-0.09-0.083-0.139-0.124
	c-0.02-0.015-0.041-0.029-0.06-0.044c-0.031-0.024-0.062-0.048-0.097-0.071c-0.026-0.019-0.055-0.036-0.084-0.054
	c-0.027-0.018-0.057-0.036-0.086-0.053c-0.034-0.02-0.068-0.039-0.105-0.058c-0.025-0.014-0.051-0.027-0.078-0.042
	c-0.041-0.021-0.082-0.04-0.125-0.06c-0.022-0.011-0.047-0.021-0.068-0.031c-0.049-0.021-0.098-0.042-0.147-0.062
	c-0.019-0.007-0.037-0.014-0.056-0.021c-0.056-0.021-0.111-0.042-0.17-0.062c-0.014-0.004-0.025-0.009-0.039-0.013
	c-0.064-0.021-0.129-0.042-0.195-0.062c-0.408-0.122-0.859-0.21-1.326-0.266c-0.188-0.022-0.378-0.039-0.569-0.05c0,0,0,0-0.001,0
	c-0.191-0.011-0.383-0.017-0.573-0.017l0,0l0,0c-1.822,0-3.745,0.513-4.198,1.473c-0.064,0.137-0.1,0.283-0.1,0.438v0.226v0.778
	v1.338C47.088,23.368,49.301,24.037,51.385,24.037z M54.953,22.126c0,0.481-1.39,1.182-3.567,1.182v-1.613
	c1.347,0,2.745-0.281,3.567-0.815V22.126z M47.833,19.692c0.01-0.028,0.024-0.057,0.042-0.086c0.007-0.01,0.015-0.02,0.022-0.03
	c0.013-0.02,0.026-0.038,0.043-0.058c0.011-0.013,0.024-0.025,0.036-0.038c0.017-0.016,0.034-0.033,0.053-0.05
	c0.017-0.014,0.033-0.028,0.051-0.042c0.019-0.015,0.039-0.03,0.059-0.045c0.021-0.016,0.045-0.031,0.069-0.047
	c0.02-0.012,0.041-0.025,0.062-0.038c0.028-0.017,0.057-0.034,0.088-0.051c0.019-0.01,0.039-0.02,0.059-0.031
	c0.036-0.019,0.073-0.037,0.112-0.055c0.014-0.007,0.029-0.013,0.043-0.019c0.394-0.178,0.932-0.331,1.586-0.419
	c0.002,0,0.004,0,0.007,0c0.093-0.013,0.189-0.024,0.288-0.033c0.003,0,0.007-0.001,0.011-0.001c0.099-0.01,0.2-0.018,0.303-0.024
	c0.001,0,0.001,0,0.001,0c0.198-0.013,0.402-0.021,0.617-0.021c0.225,0,0.441,0.007,0.648,0.021c0.348,0.023,0.667,0.065,0.961,0.12
	c0.02,0.004,0.041,0.008,0.061,0.012c0.231,0.045,0.445,0.098,0.639,0.158c0.02,0.006,0.039,0.013,0.059,0.019
	c0.094,0.03,0.184,0.062,0.268,0.093c0.001,0,0.002,0,0.004,0.001c0.08,0.031,0.155,0.064,0.227,0.098
	c0.018,0.008,0.035,0.017,0.051,0.025c0.07,0.034,0.137,0.069,0.195,0.104c0.002,0.001,0.003,0.002,0.006,0.004
	c0.056,0.034,0.105,0.069,0.152,0.104c0.014,0.01,0.024,0.019,0.036,0.027c0.045,0.036,0.086,0.072,0.12,0.107
	c0.094,0.1,0.143,0.198,0.143,0.288c0,0.481-1.391,1.183-3.568,1.183c-0.161,0-0.316-0.005-0.469-0.013
	c-0.046-0.002-0.09-0.005-0.135-0.008c-0.109-0.007-0.215-0.016-0.319-0.025c-0.043-0.004-0.086-0.008-0.128-0.013
	c-0.122-0.014-0.241-0.03-0.355-0.048c-0.016-0.002-0.031-0.005-0.047-0.007c-0.134-0.022-0.262-0.047-0.386-0.075
	c-0.018-0.004-0.034-0.008-0.052-0.013c-0.106-0.024-0.207-0.05-0.303-0.078c-0.019-0.005-0.038-0.011-0.057-0.017
	c-0.517-0.153-0.896-0.347-1.111-0.54c-0.008-0.007-0.016-0.015-0.024-0.022c-0.019-0.019-0.038-0.037-0.055-0.055
	c-0.021-0.024-0.042-0.048-0.058-0.072c-0.007-0.01-0.013-0.021-0.018-0.031c-0.011-0.019-0.021-0.039-0.029-0.059
	c-0.003-0.009-0.007-0.018-0.01-0.027c-0.008-0.027-0.014-0.055-0.014-0.081C47.816,19.755,47.822,19.724,47.833,19.692z"/>
<path fill="#FFFFFF" d="M60.531,20.591c2.083,0,4.297-0.669,4.297-1.91v-2.342c0-0.078-0.009-0.153-0.025-0.226
	c-0.033-0.146-0.1-0.283-0.193-0.411c-0.046-0.063-0.101-0.125-0.16-0.185c-0.043-0.042-0.09-0.083-0.139-0.124
	c-0.019-0.016-0.04-0.03-0.06-0.044c-0.032-0.024-0.063-0.047-0.097-0.071c-0.027-0.019-0.055-0.036-0.083-0.054
	c-0.028-0.018-0.058-0.035-0.087-0.053c-0.034-0.02-0.069-0.039-0.105-0.059c-0.025-0.014-0.051-0.027-0.078-0.042
	c-0.041-0.021-0.082-0.04-0.125-0.06c-0.022-0.011-0.046-0.021-0.069-0.031c-0.048-0.021-0.097-0.042-0.146-0.062
	c-0.019-0.007-0.037-0.014-0.056-0.021c-0.055-0.021-0.111-0.042-0.17-0.062c-0.013-0.004-0.026-0.009-0.039-0.013
	c-0.064-0.021-0.129-0.042-0.195-0.062c-0.408-0.122-0.858-0.21-1.326-0.265c-0.188-0.022-0.379-0.039-0.569-0.05
	c-0.001,0-0.001,0-0.001,0c-0.191-0.011-0.383-0.017-0.573-0.017l0,0l0,0c-1.822,0-3.745,0.513-4.198,1.473
	c-0.064,0.137-0.099,0.283-0.099,0.438v0.225v0.779v1.338C56.234,19.921,58.447,20.591,60.531,20.591z M64.1,18.681
	c0,0.481-1.391,1.182-3.568,1.182v-1.613c1.348,0,2.746-0.282,3.568-0.816V18.681z M56.979,16.246
	c0.01-0.028,0.024-0.057,0.042-0.086c0.007-0.01,0.015-0.02,0.022-0.03c0.014-0.019,0.027-0.038,0.043-0.057
	c0.012-0.012,0.025-0.025,0.037-0.038c0.016-0.017,0.034-0.034,0.053-0.05c0.016-0.014,0.033-0.028,0.052-0.042
	c0.019-0.015,0.038-0.03,0.059-0.045c0.021-0.016,0.045-0.031,0.069-0.047c0.019-0.012,0.04-0.025,0.061-0.039
	c0.028-0.017,0.057-0.034,0.088-0.051c0.019-0.011,0.039-0.02,0.059-0.03c0.037-0.019,0.073-0.038,0.112-0.056
	c0.015-0.007,0.028-0.014,0.043-0.02c0.394-0.178,0.932-0.33,1.586-0.418c0.003,0,0.005,0,0.007,0
	c0.094-0.013,0.189-0.024,0.289-0.034c0.004,0,0.007,0,0.012-0.001c0.098-0.009,0.199-0.018,0.303-0.024c0,0,0,0,0.001,0
	c0.198-0.013,0.403-0.021,0.616-0.021c0.226,0,0.441,0.007,0.649,0.021c0.348,0.023,0.667,0.065,0.96,0.12
	c0.021,0.003,0.041,0.007,0.061,0.012c0.232,0.045,0.446,0.099,0.64,0.158c0.019,0.006,0.039,0.013,0.058,0.018
	c0.094,0.03,0.185,0.062,0.268,0.094c0.002,0,0.003,0,0.004,0.001c0.081,0.031,0.156,0.064,0.229,0.098
	c0.017,0.008,0.033,0.016,0.051,0.025c0.069,0.034,0.135,0.069,0.193,0.104c0.002,0,0.004,0.002,0.006,0.003
	c0.057,0.034,0.107,0.069,0.152,0.104c0.014,0.009,0.025,0.019,0.037,0.028c0.045,0.036,0.086,0.072,0.12,0.107
	c0.093,0.1,0.142,0.198,0.142,0.288c0,0.482-1.391,1.183-3.568,1.183c-0.16,0-0.316-0.005-0.468-0.013
	c-0.046-0.001-0.089-0.005-0.135-0.008c-0.108-0.006-0.216-0.016-0.319-0.025c-0.043-0.004-0.086-0.008-0.129-0.014
	c-0.121-0.014-0.24-0.03-0.354-0.048c-0.016-0.002-0.032-0.004-0.046-0.007c-0.135-0.022-0.262-0.047-0.387-0.075
	c-0.018-0.004-0.034-0.008-0.051-0.013c-0.106-0.024-0.207-0.05-0.303-0.078c-0.02-0.005-0.039-0.011-0.058-0.017
	c-0.516-0.153-0.896-0.347-1.111-0.54c-0.008-0.007-0.015-0.015-0.022-0.022c-0.02-0.019-0.039-0.036-0.055-0.055
	c-0.021-0.024-0.042-0.048-0.059-0.073c-0.007-0.01-0.012-0.021-0.018-0.031c-0.011-0.019-0.021-0.039-0.027-0.059
	c-0.005-0.009-0.008-0.018-0.011-0.027c-0.009-0.028-0.015-0.055-0.015-0.081C56.963,16.309,56.969,16.278,56.979,16.246z"/>
<path fill="#FFFFFF" d="M69.676,17.145c2.084,0,4.297-0.67,4.297-1.911v-2.342c0-0.077-0.008-0.152-0.024-0.226
	c-0.033-0.146-0.099-0.283-0.192-0.411c-0.047-0.064-0.102-0.125-0.161-0.186c-0.043-0.042-0.089-0.083-0.139-0.124
	c-0.019-0.016-0.04-0.03-0.06-0.044c-0.031-0.023-0.062-0.047-0.096-0.07c-0.027-0.019-0.056-0.036-0.084-0.054
	c-0.029-0.018-0.057-0.036-0.086-0.053c-0.035-0.02-0.07-0.039-0.105-0.059c-0.026-0.014-0.053-0.027-0.078-0.041
	c-0.041-0.021-0.083-0.041-0.126-0.06c-0.022-0.011-0.046-0.021-0.069-0.031c-0.047-0.021-0.096-0.042-0.146-0.062
	c-0.018-0.007-0.037-0.015-0.055-0.021c-0.057-0.021-0.112-0.042-0.17-0.062c-0.014-0.004-0.025-0.008-0.039-0.013
	c-0.064-0.021-0.129-0.042-0.195-0.062c-0.408-0.122-0.859-0.21-1.326-0.266c-0.188-0.022-0.378-0.039-0.569-0.05
	c-0.001,0-0.001,0-0.001,0c-0.191-0.011-0.383-0.017-0.572-0.017l0,0h-0.002c-1.822,0-3.744,0.513-4.196,1.473
	c-0.064,0.137-0.1,0.283-0.1,0.438v0.226v0.778v1.338C65.381,16.475,67.594,17.145,69.676,17.145z M73.245,15.234
	c0,0.481-1.389,1.182-3.566,1.182v-1.613c1.347,0,2.745-0.281,3.566-0.815V15.234z M66.125,12.799
	c0.01-0.028,0.024-0.057,0.043-0.086c0.006-0.011,0.014-0.02,0.021-0.031c0.014-0.019,0.027-0.038,0.044-0.058
	c0.011-0.013,0.023-0.025,0.036-0.038c0.017-0.017,0.034-0.034,0.053-0.05c0.016-0.014,0.034-0.028,0.051-0.042
	c0.019-0.016,0.039-0.03,0.06-0.045c0.021-0.016,0.045-0.031,0.069-0.047c0.019-0.013,0.039-0.025,0.061-0.039
	c0.027-0.017,0.058-0.034,0.088-0.051c0.019-0.011,0.039-0.021,0.059-0.031c0.036-0.019,0.073-0.038,0.112-0.055
	c0.015-0.007,0.028-0.014,0.043-0.02c0.394-0.177,0.933-0.33,1.586-0.418c0.003-0.001,0.005-0.001,0.007-0.001
	c0.094-0.012,0.189-0.023,0.288-0.033c0.005,0,0.009,0,0.012-0.001c0.1-0.01,0.2-0.018,0.304-0.024c0,0,0,0,0.001,0
	c0.198-0.013,0.403-0.021,0.617-0.021c0.226,0,0.441,0.007,0.647,0.021c0.349,0.023,0.668,0.065,0.961,0.12
	c0.021,0.004,0.041,0.007,0.061,0.012c0.232,0.045,0.446,0.098,0.639,0.158c0.02,0.006,0.039,0.013,0.059,0.018
	c0.094,0.03,0.185,0.061,0.269,0.094c0.001,0,0.002,0.001,0.003,0.001c0.082,0.031,0.156,0.064,0.227,0.098
	c0.018,0.008,0.035,0.016,0.053,0.025c0.069,0.034,0.135,0.069,0.193,0.104c0.002,0.002,0.004,0.002,0.006,0.004
	c0.057,0.034,0.107,0.069,0.153,0.104c0.013,0.01,0.024,0.019,0.036,0.028c0.045,0.036,0.086,0.072,0.119,0.107
	c0.094,0.099,0.143,0.198,0.143,0.288c0,0.482-1.39,1.183-3.567,1.183c-0.161,0-0.316-0.005-0.468-0.013
	c-0.047-0.001-0.09-0.005-0.135-0.008c-0.109-0.007-0.217-0.016-0.32-0.025c-0.043-0.004-0.086-0.008-0.129-0.013
	c-0.121-0.014-0.24-0.03-0.354-0.047c-0.016-0.002-0.032-0.004-0.046-0.007c-0.135-0.022-0.263-0.047-0.387-0.075
	c-0.018-0.004-0.035-0.008-0.052-0.013c-0.106-0.024-0.206-0.05-0.303-0.078c-0.02-0.006-0.038-0.011-0.058-0.016
	c-0.516-0.153-0.895-0.347-1.111-0.54c-0.008-0.007-0.016-0.015-0.023-0.022c-0.018-0.018-0.038-0.036-0.054-0.055
	c-0.021-0.023-0.042-0.048-0.058-0.072c-0.008-0.011-0.013-0.021-0.018-0.031C66.152,13.04,66.143,13.02,66.135,13
	c-0.004-0.009-0.008-0.018-0.01-0.027c-0.009-0.027-0.015-0.055-0.015-0.082C66.109,12.862,66.115,12.831,66.125,12.799z"/>
<path fill="#FFFFFF" d="M88.318,11.911c-0.004-0.011-0.008-0.02-0.012-0.03c-0.009-0.021-0.018-0.042-0.03-0.062
	c-0.006-0.01-0.013-0.019-0.02-0.029c-0.014-0.019-0.029-0.035-0.046-0.05c-0.008-0.007-0.016-0.015-0.023-0.021
	c-0.004-0.003-0.007-0.006-0.012-0.009c-0.023-0.017-0.049-0.03-0.076-0.04l0,0h-0.001c-0.001-0.001-0.001-0.001-0.001-0.001
	l-4.979-1.905V9.446c0-0.077-0.009-0.153-0.025-0.226c-0.033-0.146-0.1-0.283-0.192-0.411c-0.046-0.063-0.101-0.125-0.161-0.185
	c-0.043-0.042-0.088-0.083-0.139-0.124c-0.018-0.016-0.039-0.03-0.059-0.044c-0.031-0.024-0.062-0.047-0.096-0.07
	c-0.027-0.019-0.057-0.037-0.085-0.054s-0.056-0.036-0.086-0.053c-0.034-0.02-0.069-0.04-0.105-0.058
	c-0.026-0.014-0.052-0.028-0.078-0.042c-0.041-0.021-0.083-0.041-0.126-0.06c-0.022-0.01-0.045-0.021-0.068-0.031
	c-0.048-0.021-0.098-0.042-0.146-0.062c-0.019-0.007-0.038-0.015-0.056-0.021c-0.056-0.021-0.112-0.042-0.169-0.062
	c-0.014-0.004-0.026-0.008-0.04-0.013c-0.063-0.021-0.129-0.042-0.194-0.062c-0.409-0.122-0.859-0.21-1.326-0.266
	c-0.188-0.022-0.379-0.039-0.57-0.05l0,0c-0.191-0.011-0.383-0.017-0.574-0.017l0,0l0,0c-0.434,0-0.874,0.03-1.298,0.087
	l-3.64-1.393V5.911c0-0.077-0.008-0.153-0.025-0.226c-0.033-0.146-0.099-0.283-0.191-0.411c-0.047-0.063-0.102-0.125-0.161-0.185
	c-0.043-0.043-0.09-0.084-0.14-0.124C73.35,4.95,73.328,4.936,73.309,4.92c-0.031-0.023-0.062-0.047-0.097-0.07
	c-0.026-0.019-0.056-0.036-0.084-0.054C73.1,4.778,73.072,4.76,73.041,4.743c-0.033-0.02-0.068-0.039-0.104-0.058
	c-0.025-0.014-0.052-0.028-0.078-0.041c-0.04-0.021-0.082-0.041-0.125-0.06c-0.022-0.01-0.046-0.021-0.069-0.031
	c-0.048-0.021-0.097-0.042-0.146-0.062c-0.019-0.008-0.037-0.015-0.057-0.021c-0.055-0.021-0.11-0.042-0.169-0.062
	c-0.014-0.005-0.026-0.008-0.04-0.014c-0.062-0.021-0.129-0.042-0.194-0.062c-0.409-0.121-0.858-0.21-1.325-0.266
	c-0.188-0.022-0.379-0.04-0.57-0.05l0,0C69.972,4.006,69.779,4,69.59,4h-0.001l0,0c-1.822,0-3.745,0.513-4.197,1.473
	c-0.063,0.137-0.099,0.284-0.099,0.438v0.225v0l-3.668,1.382c0.014,0.001,0.027,0.004,0.043,0.006
	c-0.027-0.003-0.054-0.008-0.08-0.011c-0.189-0.022-0.379-0.039-0.57-0.05c-0.002,0-0.002,0-0.002,0
	c-0.19-0.011-0.381-0.017-0.572-0.017l0,0l0,0c-1.822,0-3.746,0.513-4.197,1.473c-0.064,0.137-0.1,0.283-0.1,0.438v0.225v0.001
	l-3.669,1.382c0.024,0.003,0.046,0.007,0.069,0.01c-0.035-0.004-0.07-0.01-0.105-0.015c-0.189-0.022-0.379-0.04-0.57-0.05l0,0
	c-0.191-0.011-0.383-0.017-0.573-0.017l0,0l0,0c-1.822,0-3.745,0.513-4.198,1.473c-0.064,0.137-0.099,0.283-0.099,0.438v0.225l0,0
	l-3.669,1.382c0.024,0.003,0.048,0.007,0.072,0.01c-0.037-0.004-0.072-0.011-0.109-0.015c-0.188-0.022-0.378-0.04-0.57-0.05l0,0
	c-0.191-0.011-0.383-0.018-0.573-0.018l0,0l0,0c-1.822,0-3.745,0.513-4.198,1.473c-0.064,0.137-0.099,0.283-0.099,0.438v0.226
	l-3.669,1.383c0.018,0.002,0.035,0.005,0.053,0.007c-0.03-0.003-0.06-0.009-0.09-0.013c-0.188-0.022-0.378-0.039-0.569-0.049l0,0
	c-0.191-0.012-0.383-0.017-0.573-0.017l0,0l0,0c-1.822,0-3.745,0.513-4.197,1.473c-0.064,0.137-0.099,0.283-0.099,0.438v0.224
	l-3.67,1.383c0.03,0.003,0.06,0.009,0.088,0.012c-0.042-0.005-0.082-0.012-0.125-0.017c-0.188-0.022-0.378-0.04-0.569-0.051l0,0
	c-0.191-0.011-0.383-0.017-0.574-0.017l0,0l0,0c-1.822,0-3.745,0.512-4.198,1.473c-0.064,0.138-0.099,0.283-0.099,0.438v0.225
	l-5.067,1.909c-0.001,0-0.002,0.002-0.003,0.002c-0.026,0.011-0.05,0.022-0.074,0.039c-0.003,0.002-0.006,0.006-0.009,0.008
	c-0.01,0.008-0.018,0.016-0.027,0.023c-0.016,0.016-0.031,0.03-0.044,0.047c-0.008,0.011-0.015,0.02-0.021,0.031
	c-0.012,0.018-0.021,0.038-0.029,0.058c-0.004,0.011-0.009,0.021-0.013,0.032c-0.009,0.031-0.014,0.062-0.015,0.095
	c-0.002,0-0.003,0.001-0.003,0.003c0,0.001,0,0.001,0,0.001v0.001v4.992c0,0.15,0.093,0.285,0.234,0.34l18.468,7.07
	c0.003,0.001,0.007,0,0.01,0.002c0.037,0.012,0.074,0.02,0.112,0.021c0.002,0,0.005,0.001,0.008,0.001
	c0.041,0,0.081-0.009,0.119-0.021c0.003-0.002,0.006-0.001,0.009-0.002l54.876-20.678c0.143-0.053,0.236-0.189,0.236-0.341V12.01
	C88.334,11.976,88.328,11.943,88.318,11.911z M77.604,8.344c0.094-0.013,0.189-0.024,0.287-0.034c0.005,0,0.009,0,0.012-0.001
	c0.1-0.009,0.201-0.018,0.304-0.024c0.001,0,0.001,0,0.001,0c0.199-0.013,0.403-0.021,0.617-0.021c0.225,0,0.441,0.007,0.648,0.021
	c0.348,0.023,0.668,0.065,0.961,0.12c0.02,0.003,0.041,0.007,0.061,0.012c0.232,0.045,0.445,0.099,0.639,0.158
	c0.02,0.006,0.039,0.013,0.059,0.019c0.094,0.031,0.184,0.062,0.268,0.094c0.001,0,0.002,0,0.004,0.001
	c0.08,0.032,0.156,0.064,0.227,0.098c0.018,0.008,0.035,0.016,0.053,0.025c0.068,0.034,0.135,0.069,0.193,0.104
	c0.002,0.001,0.003,0.002,0.006,0.003c0.057,0.034,0.107,0.069,0.152,0.104c0.013,0.009,0.023,0.018,0.037,0.027
	c0.044,0.036,0.086,0.072,0.119,0.107c0.094,0.099,0.142,0.198,0.142,0.288c0,0.482-1.39,1.182-3.567,1.182
	c-0.161,0-0.316-0.005-0.468-0.013c-0.046-0.002-0.091-0.005-0.135-0.008c-0.108-0.007-0.216-0.016-0.32-0.025
	c-0.044-0.004-0.086-0.008-0.128-0.013c-0.123-0.014-0.24-0.03-0.355-0.047c-0.016-0.002-0.031-0.004-0.046-0.007
	c-0.136-0.022-0.263-0.047-0.386-0.075c-0.018-0.004-0.035-0.008-0.053-0.013c-0.105-0.024-0.206-0.05-0.303-0.078
	c-0.02-0.005-0.038-0.011-0.057-0.017c-0.517-0.152-0.896-0.347-1.111-0.54c-0.008-0.007-0.016-0.015-0.023-0.022
	c-0.02-0.018-0.039-0.036-0.055-0.055c-0.021-0.024-0.042-0.048-0.057-0.072c-0.008-0.011-0.014-0.021-0.019-0.031
	c-0.011-0.02-0.021-0.039-0.028-0.059c-0.004-0.009-0.008-0.018-0.011-0.027c-0.009-0.027-0.015-0.055-0.015-0.082
	c0-0.03,0.006-0.061,0.016-0.093c0.01-0.028,0.023-0.057,0.043-0.086c0.006-0.01,0.015-0.02,0.021-0.03
	c0.014-0.019,0.027-0.039,0.044-0.058c0.011-0.013,0.024-0.025,0.036-0.038c0.017-0.017,0.034-0.034,0.053-0.051
	c0.016-0.014,0.034-0.028,0.051-0.042c0.02-0.016,0.039-0.03,0.06-0.045s0.044-0.031,0.068-0.046
	c0.019-0.014,0.04-0.026,0.062-0.039c0.027-0.017,0.057-0.034,0.088-0.05c0.019-0.011,0.039-0.021,0.059-0.031
	c0.037-0.019,0.073-0.037,0.113-0.056c0.014-0.006,0.027-0.013,0.043-0.019c0.394-0.177,0.932-0.331,1.586-0.418
	C77.599,8.344,77.601,8.344,77.604,8.344z M82.392,10.541v1.248c0,0.481-1.39,1.182-3.566,1.182v-1.614
	C80.171,11.356,81.568,11.074,82.392,10.541z M66.037,5.818c0.01-0.028,0.023-0.057,0.041-0.086c0.007-0.01,0.016-0.02,0.022-0.03
	c0.014-0.02,0.026-0.039,0.044-0.058c0.012-0.013,0.024-0.025,0.037-0.038c0.016-0.017,0.033-0.033,0.053-0.05
	c0.016-0.014,0.033-0.028,0.051-0.042c0.019-0.016,0.039-0.031,0.059-0.045c0.021-0.016,0.045-0.031,0.068-0.047
	c0.02-0.013,0.041-0.026,0.062-0.038c0.027-0.017,0.057-0.034,0.088-0.051c0.018-0.01,0.039-0.021,0.059-0.031
	c0.036-0.019,0.072-0.037,0.111-0.056c0.016-0.007,0.029-0.013,0.044-0.019c0.394-0.177,0.932-0.331,1.586-0.419
	c0.002,0,0.005,0,0.007,0c0.094-0.013,0.189-0.024,0.288-0.033c0.005,0,0.008-0.001,0.012-0.001c0.099-0.01,0.2-0.018,0.303-0.024
	c0.001,0,0.001,0,0.001,0c0.198-0.013,0.402-0.021,0.617-0.021c0.225,0,0.441,0.008,0.648,0.021c0.348,0.023,0.668,0.065,0.961,0.12
	c0.02,0.004,0.041,0.008,0.061,0.012c0.231,0.045,0.445,0.099,0.639,0.159c0.02,0.006,0.039,0.013,0.059,0.019
	c0.094,0.03,0.185,0.062,0.268,0.093c0.002,0,0.002,0.001,0.004,0.001c0.08,0.032,0.156,0.064,0.227,0.098
	c0.018,0.008,0.035,0.016,0.052,0.025c0.069,0.034,0.136,0.069,0.194,0.104c0.002,0.001,0.004,0.002,0.006,0.003
	c0.057,0.034,0.107,0.069,0.152,0.104c0.014,0.009,0.025,0.018,0.037,0.027c0.045,0.035,0.086,0.072,0.119,0.107
	c0.094,0.099,0.143,0.198,0.143,0.288c0,0.482-1.391,1.182-3.568,1.182c-0.161,0-0.316-0.005-0.469-0.013
	c-0.045-0.002-0.09-0.005-0.135-0.008c-0.107-0.006-0.215-0.016-0.318-0.025c-0.045-0.004-0.086-0.008-0.129-0.013
	c-0.122-0.014-0.24-0.03-0.355-0.048c-0.016-0.002-0.031-0.004-0.046-0.006c-0.135-0.022-0.263-0.047-0.386-0.075
	c-0.018-0.004-0.034-0.008-0.052-0.013c-0.106-0.024-0.207-0.05-0.304-0.078c-0.018-0.005-0.038-0.011-0.056-0.016
	c-0.517-0.152-0.896-0.347-1.111-0.54c-0.009-0.007-0.017-0.015-0.023-0.022c-0.02-0.018-0.038-0.037-0.055-0.055
	c-0.021-0.023-0.042-0.048-0.058-0.072c-0.007-0.011-0.012-0.021-0.018-0.031c-0.012-0.019-0.021-0.039-0.029-0.058
	c-0.003-0.009-0.007-0.018-0.01-0.027c-0.008-0.028-0.014-0.055-0.014-0.082C66.021,5.881,66.027,5.85,66.037,5.818z M73.158,7.006
	v1.248c0,0.481-1.391,1.182-3.568,1.182V7.821C70.938,7.821,72.335,7.539,73.158,7.006z M62.014,7.575
	c-0.016-0.002-0.031-0.006-0.045-0.008C61.982,7.57,61.998,7.573,62.014,7.575z M62.316,7.632c-0.001,0-0.002-0.001-0.002-0.001
	S62.315,7.632,62.316,7.632z M56.891,9.264c0.01-0.028,0.024-0.057,0.043-0.086c0.006-0.01,0.015-0.02,0.021-0.03
	c0.014-0.019,0.027-0.039,0.044-0.058c0.011-0.013,0.024-0.025,0.036-0.038c0.017-0.017,0.035-0.034,0.053-0.051
	c0.016-0.014,0.034-0.028,0.051-0.042c0.02-0.016,0.039-0.03,0.061-0.045c0.02-0.016,0.044-0.031,0.067-0.046
	c0.02-0.013,0.041-0.025,0.062-0.039c0.028-0.017,0.057-0.034,0.088-0.051c0.019-0.01,0.039-0.02,0.059-0.03
	c0.037-0.019,0.074-0.038,0.113-0.056c0.014-0.007,0.027-0.013,0.043-0.019c0.394-0.177,0.932-0.331,1.586-0.418
	c0.002-0.001,0.004-0.001,0.006-0.001c0.094-0.013,0.189-0.023,0.289-0.033c0.004-0.001,0.008-0.001,0.012-0.001
	c0.099-0.01,0.199-0.018,0.303-0.024c0,0,0,0,0.002,0c0.197-0.013,0.402-0.021,0.616-0.021c0.225,0,0.44,0.007,0.648,0.021
	c0.347,0.024,0.667,0.065,0.96,0.12c0.021,0.004,0.041,0.007,0.062,0.012c0.231,0.045,0.444,0.099,0.638,0.159
	c0.02,0.006,0.04,0.013,0.059,0.018c0.095,0.031,0.186,0.062,0.268,0.094c0.002,0,0.002,0.001,0.004,0.001
	c0.081,0.031,0.156,0.064,0.228,0.098c0.017,0.008,0.034,0.017,0.052,0.025c0.068,0.034,0.136,0.069,0.194,0.104
	c0.001,0.001,0.003,0.002,0.005,0.004c0.057,0.034,0.107,0.069,0.152,0.104c0.014,0.01,0.025,0.019,0.037,0.028
	c0.045,0.036,0.086,0.072,0.119,0.107c0.094,0.099,0.143,0.198,0.143,0.288c0,0.482-1.391,1.182-3.567,1.182
	c-0.161,0-0.316-0.004-0.468-0.013c-0.047-0.001-0.091-0.005-0.135-0.008c-0.109-0.007-0.217-0.016-0.32-0.025
	c-0.044-0.004-0.086-0.008-0.128-0.013c-0.122-0.014-0.241-0.03-0.354-0.048c-0.016-0.002-0.032-0.003-0.047-0.007
	c-0.135-0.022-0.263-0.047-0.387-0.075c-0.018-0.003-0.034-0.008-0.053-0.012c-0.105-0.024-0.205-0.051-0.303-0.078
	c-0.018-0.006-0.037-0.011-0.057-0.016c-0.516-0.153-0.895-0.347-1.11-0.54c-0.009-0.007-0.017-0.015-0.024-0.022
	c-0.019-0.018-0.038-0.036-0.055-0.055c-0.02-0.023-0.041-0.048-0.057-0.073c-0.008-0.01-0.012-0.021-0.018-0.031
	c-0.012-0.02-0.021-0.04-0.029-0.059c-0.004-0.009-0.007-0.018-0.01-0.027c-0.008-0.027-0.014-0.055-0.014-0.082
	C56.875,9.327,56.88,9.296,56.891,9.264z M64.012,10.452v1.248c0,0.481-1.391,1.182-3.567,1.182v-1.613
	C61.791,11.268,63.189,10.986,64.012,10.452z M47.745,12.711c0.009-0.028,0.024-0.057,0.042-0.086c0.006-0.01,0.015-0.02,0.022-0.03
	c0.013-0.019,0.027-0.038,0.043-0.058c0.011-0.013,0.024-0.025,0.036-0.038c0.017-0.016,0.034-0.033,0.053-0.05
	c0.017-0.014,0.033-0.028,0.052-0.042c0.019-0.015,0.038-0.03,0.06-0.045s0.044-0.031,0.068-0.047
	c0.02-0.012,0.041-0.026,0.062-0.038c0.028-0.017,0.057-0.034,0.088-0.051c0.019-0.01,0.039-0.02,0.059-0.03
	c0.036-0.019,0.073-0.038,0.112-0.056c0.014-0.007,0.029-0.013,0.043-0.019c0.394-0.178,0.932-0.331,1.586-0.419
	c0.002,0,0.004,0,0.007,0c0.094-0.013,0.189-0.024,0.288-0.033c0.003-0.001,0.007-0.001,0.012-0.001
	c0.099-0.01,0.2-0.018,0.303-0.024c0,0,0,0,0.001,0c0.198-0.012,0.402-0.02,0.616-0.02c0.225,0,0.441,0.007,0.648,0.021
	c0.347,0.024,0.668,0.065,0.96,0.12c0.021,0.003,0.04,0.007,0.061,0.012c0.231,0.045,0.446,0.099,0.639,0.158
	c0.019,0.006,0.039,0.013,0.059,0.019c0.094,0.03,0.185,0.062,0.269,0.094c0,0,0.002,0,0.003,0.001
	c0.081,0.031,0.155,0.064,0.228,0.098c0.018,0.008,0.034,0.016,0.051,0.025c0.07,0.034,0.137,0.069,0.194,0.104
	c0.001,0.001,0.004,0.002,0.005,0.004c0.058,0.034,0.107,0.069,0.154,0.104c0.012,0.01,0.023,0.019,0.035,0.027
	c0.046,0.037,0.086,0.072,0.121,0.107c0.093,0.1,0.142,0.198,0.142,0.288c0,0.482-1.39,1.182-3.567,1.182
	c-0.161,0-0.316-0.005-0.469-0.012c-0.046-0.001-0.09-0.005-0.135-0.008c-0.109-0.007-0.216-0.016-0.32-0.025
	c-0.043-0.004-0.086-0.008-0.128-0.013c-0.122-0.014-0.241-0.03-0.355-0.048c-0.015-0.002-0.032-0.003-0.046-0.006
	c-0.135-0.022-0.262-0.047-0.386-0.075c-0.018-0.004-0.035-0.008-0.053-0.013c-0.106-0.024-0.207-0.05-0.303-0.078
	c-0.019-0.006-0.038-0.011-0.057-0.016c-0.517-0.153-0.896-0.347-1.111-0.54c-0.008-0.007-0.016-0.015-0.024-0.022
	c-0.019-0.019-0.038-0.037-0.055-0.055c-0.021-0.025-0.042-0.048-0.058-0.073c-0.007-0.01-0.013-0.021-0.018-0.031
	c-0.011-0.02-0.021-0.039-0.029-0.059c-0.003-0.009-0.007-0.018-0.01-0.027c-0.008-0.028-0.014-0.055-0.014-0.082
	C47.729,12.774,47.734,12.743,47.745,12.711z M54.865,13.898v1.248c0,0.481-1.39,1.181-3.568,1.181v-1.613
	C52.645,14.714,54.043,14.433,54.865,13.898z M38.599,16.158c0.009-0.028,0.023-0.057,0.042-0.086c0.006-0.01,0.015-0.02,0.022-0.03
	c0.014-0.019,0.027-0.038,0.044-0.058c0.011-0.012,0.024-0.025,0.036-0.038c0.016-0.016,0.033-0.033,0.053-0.05
	c0.016-0.014,0.033-0.028,0.051-0.042c0.019-0.015,0.038-0.029,0.06-0.045s0.045-0.031,0.068-0.047
	c0.02-0.012,0.041-0.026,0.062-0.039c0.028-0.017,0.058-0.034,0.088-0.051c0.019-0.011,0.039-0.02,0.059-0.031
	c0.036-0.019,0.073-0.037,0.112-0.056c0.014-0.007,0.029-0.013,0.043-0.019c0.394-0.178,0.932-0.33,1.586-0.418
	c0.002,0,0.004,0,0.007,0c0.093-0.013,0.189-0.024,0.288-0.034c0.004,0,0.007,0,0.012,0c0.099-0.01,0.2-0.018,0.303-0.024
	c0,0,0,0,0,0c0.199-0.013,0.403-0.021,0.617-0.021c0.225,0,0.441,0.007,0.648,0.021c0.348,0.024,0.667,0.065,0.961,0.12
	c0.021,0.004,0.041,0.007,0.061,0.012c0.232,0.045,0.445,0.099,0.639,0.158c0.019,0.006,0.039,0.013,0.059,0.019
	c0.094,0.031,0.185,0.062,0.269,0.094c0,0,0.001,0.001,0.003,0.001c0.081,0.031,0.155,0.064,0.227,0.098
	c0.018,0.008,0.035,0.017,0.052,0.025c0.07,0.034,0.136,0.069,0.194,0.104c0.001,0.001,0.003,0.002,0.005,0.003
	c0.057,0.034,0.107,0.069,0.153,0.104c0.013,0.009,0.024,0.019,0.036,0.027c0.045,0.036,0.086,0.072,0.12,0.107
	c0.093,0.1,0.142,0.198,0.142,0.288c0,0.481-1.39,1.182-3.568,1.182c-0.161,0-0.316-0.005-0.468-0.013
	c-0.046-0.001-0.09-0.005-0.135-0.008c-0.109-0.007-0.216-0.016-0.32-0.025c-0.043-0.004-0.086-0.008-0.128-0.013
	c-0.123-0.014-0.241-0.03-0.355-0.048c-0.016-0.002-0.031-0.004-0.046-0.007c-0.135-0.022-0.263-0.046-0.386-0.075
	c-0.018-0.003-0.035-0.008-0.052-0.012c-0.106-0.024-0.207-0.051-0.303-0.078c-0.019-0.005-0.038-0.011-0.057-0.016
	c-0.517-0.153-0.896-0.347-1.111-0.54c-0.008-0.007-0.016-0.015-0.023-0.022c-0.02-0.019-0.039-0.037-0.055-0.055
	c-0.021-0.024-0.042-0.048-0.058-0.073c-0.007-0.01-0.013-0.021-0.019-0.031c-0.011-0.02-0.021-0.039-0.029-0.059
	c-0.004-0.009-0.007-0.018-0.01-0.027c-0.008-0.028-0.014-0.055-0.014-0.081C38.582,16.221,38.588,16.189,38.599,16.158z
	 M45.719,17.345v1.247c0,0.482-1.39,1.182-3.568,1.182v-1.613C43.498,18.161,44.896,17.879,45.719,17.345z M29.452,19.604
	c0.01-0.028,0.024-0.057,0.042-0.086c0.007-0.011,0.015-0.02,0.022-0.03c0.013-0.02,0.027-0.038,0.044-0.058
	c0.011-0.013,0.023-0.025,0.036-0.038c0.017-0.017,0.033-0.033,0.053-0.05c0.016-0.014,0.033-0.028,0.051-0.042
	c0.019-0.016,0.038-0.029,0.059-0.045c0.021-0.016,0.045-0.031,0.069-0.047c0.019-0.013,0.041-0.026,0.062-0.039
	c0.028-0.017,0.057-0.034,0.088-0.051c0.019-0.01,0.04-0.02,0.059-0.031c0.037-0.019,0.074-0.037,0.113-0.056
	c0.014-0.007,0.029-0.013,0.043-0.019c0.394-0.177,0.932-0.33,1.586-0.419c0.002,0,0.004,0,0.007,0
	c0.093-0.013,0.189-0.024,0.288-0.033c0.003,0,0.008-0.001,0.012-0.001c0.099-0.01,0.2-0.018,0.303-0.024c0.001,0,0.001,0,0.001,0
	c0.198-0.013,0.403-0.021,0.617-0.021c0.225,0,0.441,0.007,0.649,0.021c0.347,0.023,0.667,0.065,0.96,0.12
	c0.021,0.004,0.041,0.008,0.061,0.012c0.232,0.045,0.445,0.099,0.639,0.158c0.02,0.006,0.039,0.013,0.059,0.019
	c0.093,0.03,0.185,0.062,0.268,0.093c0.001,0.001,0.001,0.001,0.003,0.001c0.081,0.032,0.156,0.064,0.228,0.099
	c0.017,0.008,0.034,0.016,0.051,0.024c0.069,0.034,0.135,0.069,0.194,0.104c0.001,0.001,0.003,0.002,0.005,0.003
	c0.057,0.034,0.107,0.069,0.153,0.104c0.013,0.009,0.024,0.018,0.036,0.027c0.045,0.035,0.087,0.072,0.12,0.107
	c0.093,0.099,0.142,0.198,0.142,0.288c0,0.481-1.39,1.182-3.568,1.182c-0.162,0-0.316-0.005-0.468-0.013
	c-0.046-0.002-0.09-0.005-0.135-0.008c-0.109-0.006-0.216-0.015-0.32-0.025c-0.043-0.004-0.086-0.008-0.127-0.013
	c-0.122-0.014-0.241-0.031-0.355-0.048c-0.016-0.002-0.031-0.004-0.046-0.007c-0.135-0.022-0.262-0.046-0.386-0.075
	c-0.018-0.004-0.034-0.008-0.052-0.013c-0.106-0.024-0.207-0.05-0.303-0.078c-0.02-0.005-0.039-0.011-0.057-0.016
	c-0.517-0.153-0.896-0.347-1.111-0.54c-0.008-0.007-0.016-0.015-0.023-0.022c-0.02-0.019-0.039-0.037-0.055-0.055
	c-0.021-0.024-0.042-0.048-0.058-0.073c-0.007-0.01-0.013-0.021-0.019-0.031c-0.011-0.02-0.021-0.039-0.029-0.059
	c-0.004-0.009-0.007-0.018-0.01-0.027c-0.008-0.027-0.014-0.055-0.014-0.081C29.437,19.667,29.441,19.635,29.452,19.604z
	 M36.573,20.791v1.248c0,0.481-1.39,1.182-3.567,1.182v-1.613C34.352,21.607,35.75,21.326,36.573,20.791z M20.306,23.05
	c0.009-0.028,0.023-0.057,0.041-0.085c0.006-0.01,0.015-0.02,0.022-0.03c0.013-0.019,0.027-0.039,0.044-0.057
	c0.011-0.014,0.024-0.025,0.036-0.039c0.016-0.016,0.033-0.033,0.053-0.049c0.015-0.015,0.033-0.028,0.051-0.043
	c0.019-0.015,0.038-0.03,0.06-0.045s0.044-0.031,0.068-0.046c0.02-0.013,0.041-0.026,0.062-0.038
	c0.028-0.018,0.057-0.034,0.088-0.051c0.019-0.01,0.038-0.02,0.058-0.03c0.037-0.019,0.074-0.038,0.114-0.056
	c0.014-0.007,0.029-0.013,0.043-0.019c0.394-0.178,0.932-0.331,1.586-0.418c0.002,0,0.004-0.001,0.006-0.001
	c0.094-0.013,0.19-0.023,0.288-0.033c0.004,0,0.007-0.001,0.012-0.001c0.098-0.009,0.2-0.018,0.303-0.024c0,0,0,0,0.001,0
	c0.198-0.013,0.403-0.021,0.617-0.021c0.225,0,0.441,0.007,0.649,0.021c0.348,0.023,0.667,0.065,0.961,0.12
	c0.02,0.003,0.041,0.007,0.061,0.012c0.231,0.045,0.445,0.099,0.639,0.159c0.019,0.006,0.039,0.012,0.059,0.018
	c0.094,0.03,0.184,0.061,0.268,0.094c0,0,0.002,0,0.003,0.001c0.081,0.031,0.156,0.064,0.227,0.098
	c0.017,0.009,0.035,0.016,0.052,0.025c0.069,0.034,0.135,0.069,0.194,0.104c0.001,0.001,0.003,0.002,0.005,0.003
	c0.056,0.034,0.106,0.069,0.153,0.104c0.013,0.01,0.024,0.019,0.036,0.027c0.044,0.036,0.086,0.073,0.12,0.108
	c0.093,0.1,0.142,0.198,0.142,0.289c0,0.482-1.39,1.182-3.568,1.182c-0.161,0-0.316-0.005-0.468-0.013
	c-0.046-0.002-0.09-0.006-0.135-0.008c-0.109-0.007-0.216-0.016-0.32-0.025c-0.043-0.004-0.086-0.008-0.128-0.014
	c-0.122-0.014-0.241-0.029-0.355-0.047c-0.015-0.004-0.032-0.005-0.046-0.007c-0.135-0.022-0.262-0.048-0.386-0.075
	c-0.018-0.004-0.035-0.009-0.052-0.012c-0.106-0.025-0.207-0.051-0.303-0.078c-0.019-0.006-0.038-0.012-0.056-0.017
	c-0.516-0.152-0.896-0.347-1.111-0.54c-0.008-0.008-0.016-0.016-0.023-0.022c-0.02-0.019-0.039-0.037-0.055-0.055
	c-0.021-0.024-0.042-0.048-0.057-0.072c-0.007-0.011-0.013-0.021-0.019-0.031c-0.011-0.02-0.021-0.039-0.029-0.059
	c-0.004-0.009-0.007-0.018-0.01-0.026c-0.008-0.028-0.014-0.055-0.014-0.082C20.29,23.113,20.295,23.082,20.306,23.05z
	 M27.426,24.238v1.247c0,0.482-1.39,1.182-3.567,1.182v-1.613C25.206,25.054,26.604,24.771,27.426,24.238z M19.562,24.146
	L19.562,24.146v1.339c0,1.241,2.214,1.91,4.296,1.91c2.083,0,4.297-0.669,4.297-1.91v-2.342c0-0.077-0.009-0.152-0.025-0.226
	c-0.033-0.146-0.099-0.284-0.192-0.412c-0.047-0.064-0.101-0.125-0.161-0.185c-0.043-0.043-0.09-0.083-0.139-0.124
	c-0.019-0.016-0.04-0.03-0.059-0.044c-0.031-0.024-0.063-0.048-0.096-0.071c-0.027-0.019-0.056-0.036-0.084-0.054
	c-0.029-0.018-0.057-0.035-0.086-0.053c-0.034-0.02-0.07-0.039-0.105-0.058c-0.026-0.014-0.052-0.028-0.079-0.042
	c-0.041-0.021-0.083-0.041-0.125-0.06c-0.022-0.01-0.046-0.021-0.069-0.031c-0.048-0.021-0.096-0.042-0.146-0.062
	c-0.019-0.007-0.037-0.015-0.056-0.021c-0.056-0.021-0.112-0.042-0.17-0.062c-0.013-0.004-0.026-0.008-0.039-0.013
	c-0.049-0.016-0.099-0.032-0.15-0.047l2.335-0.88l0,0v1.338c0,1.242,2.213,1.911,4.296,1.911c2.083,0,4.297-0.669,4.297-1.911
	v-2.341c0-0.078-0.008-0.153-0.025-0.227c-0.033-0.146-0.099-0.283-0.192-0.411c-0.047-0.064-0.1-0.125-0.161-0.186
	c-0.043-0.042-0.09-0.083-0.139-0.124c-0.019-0.016-0.039-0.03-0.059-0.044c-0.031-0.024-0.062-0.048-0.097-0.071
	c-0.027-0.019-0.055-0.036-0.083-0.054c-0.029-0.018-0.056-0.036-0.086-0.054c-0.034-0.02-0.069-0.039-0.105-0.058
	c-0.025-0.014-0.052-0.027-0.078-0.042c-0.041-0.021-0.083-0.041-0.125-0.06c-0.022-0.01-0.046-0.021-0.069-0.031
	c-0.048-0.021-0.097-0.041-0.147-0.061c-0.018-0.008-0.037-0.015-0.055-0.021c-0.056-0.021-0.112-0.042-0.17-0.062
	c-0.013-0.004-0.026-0.009-0.039-0.014c-0.049-0.016-0.099-0.032-0.15-0.047l2.334-0.88v1.341c0,1.241,2.214,1.911,4.296,1.911
	c2.083,0,4.296-0.67,4.296-1.911V16.25c0-0.078-0.008-0.153-0.025-0.226c-0.034-0.146-0.1-0.283-0.193-0.411
	c-0.046-0.064-0.1-0.125-0.161-0.185c-0.043-0.042-0.09-0.083-0.139-0.124c-0.019-0.016-0.039-0.029-0.059-0.044
	c-0.032-0.024-0.063-0.048-0.096-0.071c-0.027-0.019-0.056-0.037-0.084-0.054c-0.029-0.018-0.056-0.036-0.086-0.053
	c-0.033-0.02-0.069-0.039-0.105-0.058c-0.025-0.014-0.052-0.027-0.078-0.042c-0.041-0.021-0.083-0.04-0.125-0.06
	c-0.022-0.01-0.046-0.021-0.069-0.031c-0.048-0.021-0.097-0.042-0.147-0.062c-0.019-0.007-0.037-0.014-0.056-0.021
	c-0.056-0.021-0.112-0.042-0.169-0.062c-0.014-0.004-0.026-0.009-0.04-0.013c-0.048-0.017-0.099-0.032-0.149-0.048L47,13.807v1.339
	c0,1.241,2.213,1.91,4.297,1.91c2.082,0,4.296-0.669,4.296-1.91v-2.342c0-0.077-0.009-0.153-0.024-0.226
	c-0.034-0.146-0.1-0.283-0.193-0.411c-0.046-0.063-0.1-0.125-0.161-0.185c-0.043-0.042-0.089-0.083-0.138-0.124
	c-0.02-0.015-0.041-0.029-0.061-0.044c-0.031-0.025-0.062-0.048-0.096-0.071c-0.027-0.019-0.056-0.036-0.084-0.054
	c-0.028-0.018-0.057-0.036-0.086-0.053c-0.035-0.02-0.07-0.039-0.105-0.058c-0.025-0.014-0.052-0.028-0.078-0.042
	c-0.041-0.02-0.082-0.04-0.125-0.06c-0.023-0.011-0.047-0.021-0.069-0.031c-0.048-0.021-0.097-0.042-0.147-0.062
	c-0.018-0.007-0.037-0.014-0.055-0.021C54.114,11.34,54.058,11.319,54,11.3c-0.014-0.004-0.025-0.009-0.039-0.013
	c-0.049-0.016-0.099-0.032-0.148-0.047l2.334-0.88v1.338c0,1.241,2.213,1.91,4.296,1.91s4.297-0.669,4.297-1.91V9.357
	c0-0.077-0.009-0.153-0.025-0.226c-0.033-0.146-0.099-0.283-0.192-0.411c-0.047-0.063-0.101-0.125-0.16-0.185
	c-0.043-0.042-0.09-0.083-0.139-0.123c-0.018-0.016-0.041-0.03-0.06-0.044c-0.031-0.023-0.062-0.047-0.097-0.071
	c-0.026-0.019-0.055-0.036-0.084-0.054c-0.027-0.019-0.056-0.036-0.086-0.053c-0.033-0.02-0.068-0.04-0.105-0.059
	c-0.025-0.014-0.051-0.027-0.078-0.041c-0.041-0.021-0.082-0.041-0.125-0.06c-0.022-0.01-0.046-0.021-0.068-0.031
	c-0.049-0.021-0.098-0.042-0.147-0.062c-0.019-0.007-0.037-0.014-0.056-0.021c-0.056-0.021-0.111-0.042-0.17-0.062
	c-0.014-0.004-0.025-0.009-0.039-0.013c-0.049-0.017-0.1-0.032-0.148-0.048l2.334-0.879v1.338c0,1.241,2.213,1.91,4.296,1.91
	s4.297-0.669,4.297-1.91V7.009l2.343,0.897c-0.773,0.248-1.375,0.618-1.603,1.102c-0.064,0.137-0.099,0.283-0.099,0.438v0.225v0.779
	v1.338c0,1.241,2.213,1.91,4.295,1.91c2.084,0,4.298-0.669,4.298-1.91v-1.245l3.823,1.464l-26.2,9.872l-27.65,10.419l-1.811-0.693
	L15.649,25.62L19.562,24.146z M87.605,16.75l-54.15,20.403v-4.215l18.933-7.133l35.217-13.27V16.75z"/>
</svg>
