<?xml version="1.0" encoding="utf-8"?>
<!-- Generator: Adobe Illustrator 15.0.2, SVG Export Plug-In . SVG Version: 6.00 Build 0)  -->
<!DOCTYPE svg PUBLIC "-//W3C//DTD SVG 1.1//EN" "http://www.w3.org/Graphics/SVG/1.1/DTD/svg11.dtd">
<svg version="1.1" id="Ebene_1" xmlns="http://www.w3.org/2000/svg" xmlns:xlink="http://www.w3.org/1999/xlink" x="0px" y="0px"
	 width="100px" height="100px" viewBox="0 0 100 100" enable-background="new 0 0 100 100" xml:space="preserve">
<g id="Captions">
</g>
<g id="Your_Icon">
	<path fill="#FFFFFF" d="M65.873,61.23h8.23v-5.85l-0.354-1.43l-0.597-1.314l-0.955-1.191l-0.955-0.956l-1.192-0.835h-0.122
		l-1.07,0.835l-0.959,0.956l-0.951,1.191l-0.596,1.314l-0.359,1.43l-0.118,1.434L65.873,61.23 M100,96.309H0v-5.011l8.351-6.681
		V26.149h8.235V3H28.28v13.244h10.027V3h11.691v34.96h8.354V22.926h11.575V37.96h10.027V22.926h11.694v61.691L100,91.298V96.309z
		 M16.467,47.149l-0.359,0.357l-0.475,0.239l-0.596,0.241l-0.6-0.241l-0.478-0.239l-0.355-0.357l-0.241-0.596v-0.836l0.241-0.597
		l0.478-0.239l0.596-0.237h0.596l0.478,0.237l0.478,0.361l0.237,0.235h5.969v-6.084l-0.359-0.357L21.84,38.44l-0.122-0.479
		l0.122-0.596l0.237-0.476l0.359-0.357l0.596-0.361h0.24l0.711,0.239l0.481,0.24l0.355,0.357l0.119,0.718v0.474l-0.119,0.479
		l-0.478,0.474L24.1,39.393v6.084h6.088l0.359-0.476l0.596-0.357h1.074l0.478,0.357l0.718,0.955v0.356l-0.122,0.598l-0.359,0.478
		l-0.478,0.357l-0.596,0.241h-0.474l-0.596-0.241l-0.359-0.478l-0.24-0.119h-6.088v5.967l0.481,0.475l0.356,0.361v1.311
		l-0.356,0.357l-0.481,0.357l-0.474,0.24h-0.956l-0.359-0.359l-0.474-0.354l-0.122-0.599v-0.594l0.122-0.479l0.474-0.476
		l0.122-0.238V47.15L16.467,47.149L16.467,47.149z M16.586,82.943h13.368v-8.469l-0.119-1.791l-0.478-1.908l-0.596-1.789
		l-0.837-1.672l-1.196-1.551l-1.311-1.311l-1.433-1.194l-0.711-0.36h0.115l-1.548,1.076l-1.433,1.311l-1.314,1.55l-0.955,1.556
		l-0.715,1.668l-0.478,1.912l-0.24,1.907l-0.119,0.597V82.943z"/>
</g>
</svg>
